<svg width="177" height="46" viewBox="0 0 177 46" fill="none" xmlns="http://www.w3.org/2000/svg">
<g clip-path="url(#clip0_37_55)">
<path d="M1.99302 0L12.2122 22.011L21.0861 0.504607H23.8066V1.08491L22.8101 2.65928V22.995L23.8066 24.5693V25.1244H19.402V24.5693L20.3985 22.995V3.57767L11.4599 25.1244H10.9118L1.99302 5.87363V22.995L2.98953 24.5693V25.1244H0.498255V24.5693L1.46487 22.995V4.69285L0 1.5441L1.99302 0Z" fill="#0C413F"/>
<path d="M33.4279 8.76007C32.3069 8.79818 31.2052 9.06596 30.1892 9.54725L28.5051 12.8575H27.952V9.94085C28.829 9.21926 31.3202 8.19995 33.4328 8.19995C37.5434 8.19995 40.0746 9.94085 40.0746 13.8112V22.995L41.0412 24.5694V25.1245H37.7328V23.9437C36.3869 25.0935 34.6698 25.7007 32.9097 25.6493C29.3771 25.6493 25.7498 23.8125 25.7498 19.2206C25.7498 15.4814 28.6346 13.9727 31.1907 13.9727C33.1837 13.9727 37.3142 15.4865 37.7328 15.5824V13.024C37.7328 10.728 36.2131 8.76007 33.4279 8.76007ZM33.4279 24.9933C34.2369 24.9987 35.038 24.8322 35.7795 24.5045C36.5211 24.1768 37.1865 23.6952 37.7328 23.0909V16.1727C37.3142 16.0415 33.7467 14.7952 32.0676 14.7952C29.6361 14.7952 28.1812 16.5663 28.1812 19.5839C28.1812 22.2734 29.7009 24.9933 33.4279 24.9933Z" fill="#0C413F"/>
<path d="M69.0232 8.19995C71.5843 8.19995 74.6286 9.44633 74.6286 12.2368V22.995L75.6002 24.5694V25.1245H71.3252V24.5694L72.2968 22.995V13.024C72.2968 10.728 70.5778 9.02246 68.1513 9.02246C67.2744 9.02246 63.4876 10.1376 62.1274 10.5615V22.995L63.1239 24.5694V25.1245H58.8489V24.5694L59.8454 22.995V10.8845L58.8489 9.31009V8.72474H62.1523V9.97112C63.5823 9.51193 67.8922 8.19995 69.0232 8.19995Z" fill="#0C413F"/>
<path d="M84.7481 8.76007C83.6272 8.79873 82.5256 9.06649 81.5095 9.54725L79.8254 12.8575H79.2773V9.94085C80.1492 9.21926 82.6455 8.19995 84.7581 8.19995C88.8737 8.19995 91.3998 9.94085 91.3998 13.8112V22.995L92.3963 24.5694V25.1245H89.0929V23.9437C87.7457 25.0947 86.0266 25.702 84.2648 25.6493C80.7372 25.6493 77.1099 23.8125 77.1099 19.2206C77.1099 15.4814 79.9898 13.9727 82.5508 13.9727C84.5438 13.9727 88.6694 15.4865 89.0929 15.5824V13.024C89.058 10.728 87.5334 8.76007 84.7481 8.76007ZM84.7481 24.9933C85.558 24.9994 86.3601 24.8332 87.1025 24.5055C87.8449 24.1778 88.5111 23.6959 89.058 23.0909V16.1727C88.6345 16.0415 85.072 14.7952 83.3879 14.7952C80.9614 14.7952 79.5015 16.5663 79.5015 19.5839C79.5015 22.2734 81.0261 24.9933 84.7481 24.9933Z" fill="#0C413F"/>
<path d="M103.503 2.65931L102.237 1.08494V0.504639H106.871V1.08494L106.188 2.65931L114.285 21.8798L122.222 2.65931L121.539 1.08494V0.504639H124.031V1.08494L122.77 2.65931L114.544 22.5005L115.226 24.1102L113.233 25.624L103.503 2.65931Z" fill="#0C413F"/>
<path d="M126.477 2.92163C126.944 2.93671 127.389 3.13119 127.72 3.46568C128.051 3.80017 128.245 4.24966 128.261 4.72308C128.261 5.20621 128.071 5.66955 127.734 6.01117C127.397 6.35279 126.939 6.54471 126.462 6.54471C125.985 6.54471 125.527 6.35279 125.19 6.01117C124.853 5.66955 124.663 5.20621 124.663 4.72308C124.681 4.24496 124.879 3.79187 125.216 3.45686C125.553 3.12184 126.005 2.93032 126.477 2.92163ZM127.972 22.9949L128.943 24.5693V25.1243H124.663V24.5693L125.66 22.9949V10.8843L124.663 9.30996V8.72461H127.967L127.972 22.9949Z" fill="#0C413F"/>
<path d="M134.449 22.995L135.446 24.5694V25.1244H131.171V24.5694L132.167 22.995V2.65931L131.171 1.08494V0.504639H134.474L134.449 22.995Z" fill="#0C413F"/>
<path d="M145.665 25.6492C143.973 25.6549 142.318 25.1564 140.905 24.2156C139.491 23.2749 138.383 21.9337 137.717 20.3591C137.051 18.7846 136.857 17.0464 137.161 15.3613C137.464 13.6762 138.25 12.1187 139.421 10.8829C140.592 9.64724 142.097 8.788 143.747 8.41235C145.397 8.03671 147.12 8.16128 148.7 8.77053C150.281 9.37978 151.65 10.4468 152.635 11.8384C153.621 13.2301 154.181 14.8849 154.245 16.5966V17.1567H139.511C139.576 21.6174 141.843 25.0942 146.118 25.0942C150.069 25.0942 152.496 21.7133 153.273 19.7453L153.597 20.2499C152.949 21.8428 151.85 23.2057 150.439 24.1666C149.027 25.1275 147.366 25.6434 145.665 25.6492ZM151.818 16.5966C151.719 12.267 149.451 8.76002 145.665 8.76002C141.878 8.76002 139.606 12.2923 139.511 16.5966H151.818Z" fill="#0C413F"/>
<path d="M159.083 22.995L160.079 24.5694V25.1244H155.804V24.5694L156.801 22.995V2.65931L155.804 1.08494V0.504639H159.108L159.083 22.995Z" fill="#0C413F"/>
<path d="M169.407 8.76007C168.286 8.79818 167.184 9.06596 166.168 9.54725L164.484 12.8575H163.926V9.94085C164.803 9.21926 167.294 8.19995 169.407 8.19995C173.517 8.19995 176.043 9.94085 176.043 13.8112V22.995L177.015 24.5694V25.1245H173.712V23.9437C172.366 25.0935 170.649 25.7007 168.888 25.6493C165.356 25.6493 161.729 23.8125 161.729 19.2206C161.729 15.4814 164.613 13.9727 167.169 13.9727C169.162 13.9727 173.293 15.4865 173.712 15.5824V13.024C173.697 10.728 172.177 8.76007 169.407 8.76007ZM169.407 24.9933C170.216 24.9987 171.017 24.8322 171.758 24.5045C172.5 24.1768 173.165 23.6952 173.712 23.0909V16.1727C173.293 16.0415 169.725 14.7952 168.046 14.7952C165.615 14.7952 164.16 16.5663 164.16 19.5839C164.145 22.2734 165.665 24.9933 169.407 24.9933Z" fill="#0C413F"/>
<path d="M55.5405 22.9949L56.537 24.5693V25.1243H52.262V24.5693L53.2585 22.9949V10.8843L52.262 9.30995V8.72461H55.5654L55.5405 22.9949Z" fill="#0C413F"/>
<path d="M54.0507 3.13867C54.4622 3.15127 54.8534 3.32209 55.145 3.61642C55.4365 3.91074 55.6064 4.30647 55.6202 4.72314C55.6202 5.14872 55.4533 5.55687 55.1561 5.8578C54.859 6.15873 54.456 6.32779 54.0357 6.32779C53.6155 6.32779 53.2125 6.15873 52.9154 5.8578C52.6182 5.55687 52.4513 5.14872 52.4513 4.72314C52.4666 4.30176 52.641 3.90241 52.9387 3.60756C53.2363 3.3127 53.6344 3.14485 54.0507 3.13867Z" fill="#0C413F"/>
<path d="M52.4463 6.05518C52.132 5.68153 51.9559 5.20877 51.9481 4.71797C51.952 4.60961 51.9637 4.50168 51.9829 4.39502C49.8255 5.379 47.9072 7.36716 46.4174 10.0063V8.72455H43.114V9.28466L44.1105 10.859V22.9948L43.114 24.5692V25.1243H47.389V24.5692L46.3925 22.9948V11.187C47.673 8.72455 49.6412 6.05518 52.4463 6.05518Z" fill="#0C413F"/>
<path d="M90.3983 43.1137C89.9404 43.1182 89.4875 43.0181 89.073 42.821C88.6634 42.629 88.2945 42.3582 87.9868 42.0238C87.3377 41.3231 86.9808 40.3958 86.9903 39.4351C86.9797 38.7999 87.1307 38.1726 87.4287 37.6135C87.717 37.0848 88.1381 36.6426 88.6495 36.3318C89.168 35.9994 89.7697 35.8243 90.3834 35.8272C90.9512 35.8168 91.511 35.9633 92.0027 36.251C92.4616 36.5266 92.8293 36.9341 93.059 37.4217L92.6156 37.5883C92.4023 37.1817 92.0768 36.8468 91.6788 36.6245C91.268 36.3916 90.8043 36.2716 90.3336 36.2763C89.8171 36.2694 89.3098 36.4149 88.8737 36.6951C88.4369 36.9812 88.0814 37.3778 87.8423 37.8456C87.5788 38.3378 87.445 38.8904 87.4536 39.4503C87.4503 40.0165 87.5855 40.5747 87.8473 41.0751C88.0963 41.552 88.4595 41.958 88.9036 42.2559C89.3332 42.5445 89.8379 42.6973 90.3535 42.6949C90.6948 42.6925 91.0328 42.6257 91.35 42.4981C91.6626 42.3819 91.9526 42.2111 92.207 41.9935C92.4258 41.818 92.5887 41.581 92.6753 41.3123L93.1288 41.4435C93.0164 41.7829 92.8169 42.0859 92.5508 42.3215C92.2586 42.583 91.9206 42.7866 91.5543 42.922C91.1836 43.0562 90.7919 43.1211 90.3983 43.1137Z" fill="#0C413F"/>
<path d="M94.4741 34.2274V33.092H94.9275V34.2274H94.4741ZM94.4741 42.9773V35.9128H94.9275V42.9773H94.4741Z" fill="#0C413F"/>
<path d="M100.03 36.367C99.4233 36.3869 98.8396 36.6046 98.3654 36.9876C97.8768 37.3857 97.5274 37.9324 97.3689 38.5469V42.9773H96.9105V35.9481H97.354V37.7243C97.5779 37.2466 97.9089 36.8285 98.3206 36.5032C98.6906 36.2052 99.1328 36.0135 99.6011 35.9481C99.6824 35.9434 99.7639 35.9434 99.8452 35.9481H100.03V36.367Z" fill="#0C413F"/>
<path d="M101.191 39.9498V35.9482H101.644V39.8943C101.594 40.6247 101.755 41.3539 102.107 41.9934C102.261 42.2204 102.471 42.403 102.715 42.5233C102.96 42.6436 103.231 42.6975 103.502 42.6797C103.922 42.6792 104.336 42.5826 104.713 42.3971C105.106 42.2031 105.455 41.9301 105.74 41.5948C106.033 41.25 106.251 40.8457 106.377 40.409V35.9482H106.836V42.276C106.831 42.3538 106.854 42.4308 106.901 42.493C106.922 42.5184 106.949 42.5388 106.979 42.5527C107.009 42.5667 107.042 42.5738 107.075 42.5737V42.9774H106.921C106.888 42.9835 106.854 42.9835 106.821 42.9774C106.705 42.9505 106.603 42.8824 106.532 42.7857C106.457 42.6816 106.417 42.5561 106.417 42.4274V41.2618C106.118 41.8228 105.674 42.2904 105.132 42.6141C104.61 42.9444 104.008 43.1193 103.393 43.1187C103.072 43.1379 102.752 43.0749 102.462 42.9355C102.172 42.7961 101.922 42.5849 101.734 42.3214C101.318 41.6055 101.129 40.7779 101.191 39.9498Z" fill="#0C413F"/>
<path d="M111.978 36.367C111.371 36.3869 110.788 36.6046 110.314 36.9877C109.825 37.3858 109.476 37.9324 109.317 38.5469V42.9774H108.864V35.9482H109.302V37.7244C109.526 37.2454 109.859 36.8269 110.274 36.5033C110.642 36.2055 111.083 36.0137 111.549 35.9482C111.632 35.9434 111.715 35.9434 111.798 35.9482H111.978V36.367Z" fill="#0C413F"/>
<path d="M115.595 43.1136C115.138 43.1163 114.686 43.0127 114.275 42.8109C113.87 42.6115 113.511 42.3297 113.218 41.9833C112.924 41.6372 112.69 41.2431 112.526 40.8177C112.363 40.3963 112.281 39.9479 112.282 39.4956C112.279 39.0276 112.358 38.5629 112.516 38.1231C112.666 37.6947 112.892 37.2978 113.184 36.9524C113.458 36.6162 113.797 36.3398 114.18 36.14C114.588 35.9308 115.039 35.8235 115.495 35.8271C116.066 35.8201 116.625 35.9968 117.09 36.3317C117.545 36.662 117.939 37.0701 118.256 37.5377V35.9482H118.684V43.1994C118.704 43.753 118.551 44.2988 118.246 44.7587C117.957 45.1757 117.556 45.4998 117.09 45.6922C116.596 45.8997 116.065 46.0044 115.53 46C114.86 46.0354 114.194 45.8742 113.612 45.5357C113.15 45.2369 112.767 44.8281 112.496 44.3449L112.845 44.1582C113.101 44.6347 113.501 45.0163 113.986 45.2481C114.47 45.4752 114.997 45.5923 115.53 45.5913C115.999 45.5967 116.463 45.5057 116.896 45.3238C117.296 45.1566 117.641 44.8785 117.892 44.5215C118.147 44.1337 118.276 43.6751 118.261 43.2095V41.5544C117.97 42.0231 117.567 42.4101 117.09 42.6797C116.638 42.9553 116.122 43.105 115.595 43.1136ZM115.675 42.6948C115.987 42.6943 116.296 42.6344 116.587 42.5182C116.88 42.4011 117.156 42.2413 117.404 42.0439C117.638 41.8613 117.841 41.6394 118.002 41.3879C118.147 41.1707 118.239 40.9216 118.271 40.6612V38.2391C118.13 37.8602 117.911 37.5161 117.628 37.2299C117.352 36.9416 117.026 36.7073 116.666 36.5386C116.318 36.3751 115.939 36.2907 115.555 36.2913C115.144 36.2836 114.738 36.3808 114.374 36.5739C114.028 36.7587 113.725 37.0148 113.482 37.3258C113.242 37.6395 113.057 37.9929 112.934 38.3703C112.813 38.738 112.751 39.1231 112.75 39.5107C112.746 39.9265 112.821 40.3393 112.969 40.7268C113.118 41.0983 113.33 41.44 113.597 41.7361C113.86 42.0309 114.178 42.2694 114.534 42.4375C114.885 42.6046 115.267 42.6925 115.655 42.6948H115.675Z" fill="#0C413F"/>
<path d="M120.682 34.2274V33.092H121.136V34.2274H120.682ZM120.682 42.9773V35.9128H121.136V42.9773H120.682Z" fill="#0C413F"/>
<path d="M122.536 40.969C122.528 40.5768 122.661 40.195 122.909 39.8941C123.179 39.5764 123.521 39.3304 123.906 39.1776C124.383 38.9931 124.89 38.9039 125.401 38.9152C125.791 38.9173 126.181 38.951 126.567 39.0161C126.934 39.0768 127.296 39.1697 127.648 39.2937V38.5468C127.674 37.9374 127.461 37.3423 127.055 36.8917C126.846 36.6796 126.596 36.5139 126.321 36.4053C126.046 36.2967 125.751 36.2475 125.456 36.261C125.087 36.266 124.722 36.3396 124.379 36.478C123.97 36.6415 123.582 36.855 123.223 37.1138L122.994 36.7757C123.398 36.4876 123.834 36.2504 124.295 36.0692C124.675 35.9237 125.078 35.8469 125.485 35.8421C125.837 35.8233 126.188 35.8792 126.517 36.0061C126.845 36.1329 127.144 36.3281 127.394 36.5789C127.641 36.8492 127.831 37.1674 127.954 37.5143C128.076 37.8612 128.128 38.2296 128.106 38.5973V42.3011C128.101 42.3798 128.122 42.458 128.166 42.5231C128.188 42.5492 128.216 42.5696 128.247 42.5828C128.278 42.5959 128.312 42.6014 128.345 42.5988V43.0025H128.191C128.158 43.0086 128.124 43.0086 128.091 43.0025C128.031 42.9918 127.974 42.9683 127.923 42.9335C127.872 42.8987 127.829 42.8534 127.797 42.8007C127.726 42.6963 127.685 42.5741 127.678 42.4475V41.8419C127.346 42.2623 126.919 42.5948 126.432 42.8108C125.919 43.04 125.364 43.1569 124.803 43.1539C124.397 43.1587 123.997 43.0616 123.637 42.8713C123.299 42.6911 123.016 42.4228 122.815 42.0942C122.615 41.7549 122.518 41.3636 122.536 40.969ZM127.429 41.5745C127.503 41.4778 127.564 41.3707 127.608 41.2566C127.645 41.1687 127.665 41.0745 127.668 40.9791V39.6973C127.319 39.5646 126.958 39.4633 126.592 39.3946C126.215 39.3274 125.833 39.2936 125.451 39.2937C124.822 39.2635 124.198 39.4215 123.657 39.7478C123.449 39.8674 123.277 40.0407 123.157 40.2499C123.037 40.4591 122.974 40.6968 122.974 40.9387C122.973 41.2541 123.059 41.5636 123.223 41.8318C123.392 42.1032 123.627 42.3257 123.906 42.4777C124.203 42.64 124.535 42.7233 124.873 42.7199C125.387 42.7228 125.897 42.6144 126.367 42.402C126.791 42.2327 127.159 41.9459 127.429 41.5745ZM126.278 34.0962C126.047 34.1025 125.817 34.0577 125.605 33.965C125.421 33.8792 125.251 33.7934 125.107 33.7077C124.954 33.6222 124.783 33.5787 124.608 33.5815C124.453 33.5697 124.299 33.6204 124.18 33.7228C124.09 33.8054 124.021 33.9094 123.981 34.0256C123.956 34.091 123.938 34.1586 123.926 34.2274H123.567C123.567 34.2274 123.567 34.1366 123.602 34.0256C123.632 33.9049 123.679 33.7893 123.742 33.6824C123.823 33.553 123.93 33.4414 124.055 33.3544C124.224 33.2528 124.418 33.2037 124.613 33.2131C124.824 33.2064 125.033 33.2532 125.221 33.3494L125.72 33.6118C125.901 33.7024 126.101 33.7474 126.303 33.743C126.489 33.7594 126.676 33.7055 126.826 33.5916C126.921 33.5101 126.991 33.4036 127.03 33.2838C127.05 33.2208 127.067 33.1568 127.08 33.092H127.439C127.431 33.1653 127.418 33.2379 127.399 33.309C127.366 33.4319 127.312 33.548 127.239 33.6522C127.149 33.7829 127.03 33.8901 126.891 33.965C126.701 34.0615 126.49 34.1067 126.278 34.0962Z" fill="#0C413F"/>
<path d="M136.91 43.1136C136.33 43.1212 135.762 42.9447 135.286 42.609C134.824 42.2909 134.43 41.8805 134.13 41.403V45.8587H133.672V35.9482H134.1V37.4065C134.398 36.9438 134.799 36.5584 135.271 36.2812C135.697 36.0179 136.181 35.8678 136.68 35.8449C137.178 35.822 137.674 35.9269 138.121 36.15C138.522 36.357 138.881 36.6396 139.177 36.9826C139.475 37.3284 139.709 37.7248 139.87 38.1533C140.033 38.5746 140.118 39.0229 140.119 39.4754C140.125 40.0995 139.987 40.7165 139.716 41.2768C139.464 41.8112 139.079 42.2703 138.599 42.609C138.102 42.9505 137.511 43.1268 136.91 43.1136ZM136.841 42.6797C137.245 42.6845 137.644 42.5929 138.007 42.4122C138.35 42.235 138.653 41.9855 138.893 41.6805C139.14 41.3804 139.332 41.0388 139.461 40.6713C139.597 40.2945 139.666 39.8966 139.666 39.4956C139.666 39.0825 139.588 38.6731 139.437 38.2896C139.288 37.9171 139.073 37.5751 138.804 37.2804C138.535 36.9912 138.218 36.7521 137.867 36.5739C137.51 36.3972 137.118 36.3073 136.721 36.3115C136.44 36.3141 136.161 36.3688 135.899 36.473C135.604 36.5834 135.326 36.7345 135.072 36.9221C134.822 37.1039 134.604 37.3255 134.424 37.5781C134.263 37.8005 134.162 38.0612 134.13 38.335V40.7571C134.295 41.1268 134.517 41.4675 134.788 41.7663C135.057 42.0539 135.374 42.2913 135.725 42.4677C136.076 42.6244 136.457 42.697 136.841 42.6797Z" fill="#0C413F"/>
<path d="M141.669 33.092H142.137V41.8318C142.128 41.9497 142.143 42.0683 142.18 42.1802C142.218 42.2922 142.278 42.3951 142.356 42.4828C142.516 42.6277 142.725 42.7037 142.939 42.6947C143.071 42.6923 143.203 42.6788 143.333 42.6543C143.482 42.6241 143.612 42.5938 143.726 42.5585L143.836 42.9369C143.673 42.9893 143.507 43.0297 143.338 43.058C143.174 43.0901 143.007 43.1086 142.84 43.1135C142.685 43.1218 142.53 43.0966 142.385 43.0396C142.24 42.9827 142.109 42.8953 142 42.7831C141.892 42.671 141.808 42.5368 141.754 42.3893C141.7 42.2419 141.678 42.0845 141.689 41.9277L141.669 33.092Z" fill="#0C413F"/>
<path d="M144.245 40.969C144.237 40.5768 144.37 40.195 144.618 39.8941C144.888 39.5764 145.23 39.3304 145.615 39.1776C146.092 38.9931 146.599 38.9039 147.11 38.9152C147.5 38.9175 147.89 38.9512 148.276 39.0161C148.643 39.0775 149.005 39.1703 149.357 39.2937V38.5468C149.383 37.9374 149.17 37.3423 148.764 36.8917C148.555 36.6796 148.305 36.5139 148.03 36.4053C147.755 36.2967 147.46 36.2475 147.165 36.261C146.796 36.266 146.431 36.3396 146.088 36.478C145.679 36.6415 145.291 36.855 144.932 37.1138L144.703 36.7757C145.107 36.4876 145.543 36.2504 146.004 36.0692C146.383 35.9233 146.784 35.8464 147.189 35.8421C147.541 35.8236 147.893 35.8795 148.223 36.0063C148.552 36.1332 148.852 36.3282 149.103 36.5789C149.349 36.8495 149.539 37.1678 149.661 37.5147C149.782 37.8616 149.833 38.2299 149.81 38.5973V42.3011C149.805 42.3798 149.826 42.458 149.87 42.5231C149.893 42.5487 149.922 42.5687 149.954 42.5818C149.986 42.5949 150.02 42.6007 150.054 42.5988V43.0025H149.9C149.867 43.0086 149.833 43.0086 149.8 43.0025C149.74 42.9918 149.683 42.9683 149.632 42.9335C149.581 42.8987 149.538 42.8534 149.506 42.8007C149.433 42.6974 149.391 42.5746 149.387 42.4475V41.8419C149.055 42.2623 148.628 42.5948 148.141 42.8108C147.626 43.0407 147.069 43.1576 146.507 43.1539C146.103 43.1581 145.704 43.061 145.346 42.8713C145.008 42.6911 144.725 42.4228 144.524 42.0942C144.324 41.7549 144.227 41.3636 144.245 40.969ZM149.138 41.5745C149.212 41.4778 149.273 41.3707 149.317 41.2566C149.354 41.1687 149.374 41.0745 149.377 40.9791V39.6973C148.668 39.426 147.917 39.2891 147.16 39.2937C146.531 39.2635 145.907 39.4215 145.366 39.7478C145.158 39.8674 144.986 40.0407 144.866 40.2499C144.746 40.4591 144.683 40.6968 144.683 40.9387C144.682 41.2541 144.768 41.5636 144.932 41.8318C145.101 42.1032 145.336 42.3257 145.615 42.4777C145.912 42.64 146.244 42.7233 146.582 42.7199C147.105 42.7264 147.623 42.6179 148.101 42.402C148.515 42.2273 148.873 41.9411 149.138 41.5745ZM147.359 34.3384L147.04 34.1618L147.867 33.092H148.48L147.359 34.3384Z" fill="#0C413F"/>
<path d="M153.806 43.1136C153.295 43.119 152.788 43.0248 152.311 42.8361C151.848 42.6478 151.434 42.3543 151.101 41.9783L151.34 41.6503C151.673 41.9834 152.063 42.2535 152.491 42.4475C152.902 42.6228 153.345 42.7103 153.791 42.7049C154.346 42.7326 154.896 42.5864 155.366 42.2861C155.554 42.1602 155.707 41.9873 155.81 41.784C155.913 41.5806 155.963 41.3538 155.954 41.1255C155.962 40.987 155.942 40.8483 155.895 40.7181C155.847 40.5879 155.774 40.4689 155.68 40.3686C155.454 40.1625 155.185 40.0123 154.892 39.9295C154.549 39.8185 154.13 39.7025 153.642 39.5864C153.237 39.4841 152.838 39.3594 152.446 39.213C152.165 39.1157 151.917 38.941 151.728 38.7084C151.556 38.456 151.471 38.1521 151.489 37.8455C151.469 37.4372 151.589 37.0344 151.828 36.7051C152.064 36.4028 152.38 36.1752 152.74 36.0491C153.146 35.8958 153.577 35.8205 154.011 35.8271C154.502 35.8156 154.99 35.912 155.441 36.1097C155.792 36.2625 156.093 36.5148 156.307 36.8363L156.013 37.0937C155.799 36.8017 155.505 36.5804 155.166 36.4578C154.779 36.312 154.369 36.2385 153.956 36.2409C153.617 36.2377 153.28 36.2923 152.959 36.4023C152.675 36.5007 152.422 36.675 152.227 36.9069C152.027 37.1575 151.926 37.4737 151.943 37.7951C151.926 38.0414 151.998 38.2856 152.147 38.4813C152.308 38.6629 152.515 38.7972 152.745 38.8699C153.014 38.9607 153.346 39.0616 153.741 39.1726C154.285 39.3089 154.738 39.4451 155.152 39.5864C155.496 39.6905 155.811 39.8774 156.068 40.1314C156.295 40.3901 156.412 40.7294 156.392 41.075C156.406 41.3678 156.348 41.6595 156.222 41.9238C156.097 42.1881 155.909 42.4166 155.675 42.5888C155.125 42.9657 154.469 43.15 153.806 43.1136Z" fill="#0C413F"/>
<path d="M160.842 42.7201L160.627 42.8361C160.468 42.9155 160.301 42.9796 160.129 43.0279C159.915 43.0876 159.694 43.1165 159.471 43.1137C159.25 43.1171 159.03 43.0705 158.829 42.9774C158.637 42.8919 158.474 42.7516 158.36 42.5737C158.241 42.384 158.181 42.1627 158.186 41.9379V36.357H157.189V35.9482H158.186V33.5261H158.639V35.9482H160.284V36.357H158.639V41.8824C158.642 41.9982 158.67 42.1119 158.721 42.2157C158.771 42.3194 158.844 42.4107 158.933 42.4829C159.111 42.6199 159.328 42.6928 159.551 42.6898C159.811 42.698 160.068 42.6444 160.304 42.5334C160.423 42.4819 160.538 42.4212 160.647 42.3517L160.842 42.7201Z" fill="#0C413F"/>
<path d="M161.983 34.2274V33.092H162.431V34.2274H161.983ZM161.983 42.9773V35.9128H162.431V42.9773H161.983Z" fill="#0C413F"/>
<path d="M167.414 43.1137C166.956 43.1177 166.503 43.0176 166.088 42.821C165.68 42.6284 165.313 42.3577 165.007 42.0238C164.692 41.6903 164.442 41.3001 164.27 40.8732C164.093 40.4203 164.003 39.9373 164.006 39.4503C163.996 38.8146 164.149 38.1872 164.449 37.6286C164.732 37.0956 165.15 36.6481 165.66 36.3318C166.184 35.9954 166.793 35.8201 167.414 35.8272C167.981 35.8168 168.541 35.9633 169.033 36.251C169.494 36.5236 169.863 36.932 170.089 37.4217L169.651 37.5883C169.441 37.1772 169.117 36.837 168.719 36.6093C168.309 36.3754 167.845 36.2553 167.374 36.2611C166.859 36.2544 166.353 36.3999 165.919 36.68C165.466 36.9633 165.097 37.3663 164.853 37.8456C164.589 38.3378 164.455 38.8904 164.464 39.4503C164.458 40.0168 164.593 40.5757 164.858 41.0751C165.109 41.5481 165.474 41.949 165.919 42.2407C166.348 42.5305 166.853 42.6834 167.369 42.6797C167.71 42.6773 168.048 42.6106 168.365 42.4829C168.677 42.3642 168.966 42.1937 169.222 41.9783C169.438 41.7999 169.6 41.564 169.691 41.2971L170.144 41.4283C170.03 41.7683 169.829 42.0714 169.561 42.3063C169.269 42.5683 168.931 42.772 168.565 42.9068C168.196 43.045 167.806 43.1151 167.414 43.1137Z" fill="#0C413F"/>
<path d="M171.17 40.9692C171.163 40.577 171.295 40.1952 171.544 39.8943C171.813 39.5766 172.156 39.3306 172.541 39.1778C173.017 38.9935 173.525 38.9044 174.035 38.9154C174.424 38.9175 174.813 38.9512 175.196 39.0163C175.565 39.0777 175.929 39.1705 176.282 39.2939V38.547C176.296 38.2448 176.25 37.943 176.147 37.6589C176.044 37.3749 175.887 37.1142 175.685 36.8919C175.477 36.6794 175.228 36.5135 174.954 36.4048C174.679 36.2961 174.385 36.2472 174.09 36.2612C173.721 36.2662 173.357 36.3398 173.014 36.4782C172.619 36.6449 172.244 36.8583 171.898 37.114L171.674 36.7759C172.076 36.488 172.511 36.2507 172.969 36.0694C173.343 35.9211 173.739 35.8391 174.14 35.8272C174.492 35.8086 174.844 35.8646 175.173 35.9914C175.503 36.1182 175.802 36.3132 176.053 36.5639C176.3 36.8345 176.489 37.1529 176.611 37.4998C176.733 37.8467 176.784 38.215 176.761 38.5824V42.2862C176.756 42.3649 176.777 42.443 176.821 42.5082C176.843 42.5343 176.87 42.5547 176.901 42.5678C176.933 42.581 176.966 42.5865 177 42.5839V42.9876H176.846C176.813 42.9932 176.779 42.9932 176.746 42.9876C176.686 42.976 176.629 42.9521 176.578 42.9174C176.528 42.8827 176.485 42.8379 176.452 42.7857C176.383 42.6803 176.342 42.5587 176.332 42.4325V41.827C176.004 42.2483 175.578 42.5811 175.092 42.7958C174.577 43.0249 174.02 43.1418 173.457 43.139C173.053 43.1444 172.654 43.0472 172.296 42.8564C171.959 42.6761 171.675 42.4078 171.474 42.0793C171.269 41.747 171.163 41.3613 171.17 40.9692ZM176.063 41.5747C176.141 41.4793 176.203 41.372 176.248 41.2568C176.284 41.1689 176.305 41.0747 176.307 40.9793V39.6975C175.598 39.4256 174.844 39.2887 174.085 39.2939C173.458 39.2644 172.836 39.4224 172.296 39.748C172.088 39.8668 171.915 40.0399 171.795 40.2493C171.675 40.4587 171.612 40.6968 171.614 40.9389C171.611 41.2539 171.696 41.5634 171.858 41.832C172.027 42.1034 172.262 42.3259 172.541 42.4779C172.839 42.641 173.173 42.7244 173.512 42.7201C174.035 42.7261 174.554 42.6177 175.032 42.4022C175.445 42.2288 175.802 41.9422 176.063 41.5747Z" fill="#0C413F"/>
</g>
<defs>
<clipPath id="clip0_37_55">
<rect width="177" height="46" fill="white"/>
</clipPath>
</defs>
</svg>
