<svg width="93" height="36" viewBox="0 0 93 36" fill="none" xmlns="http://www.w3.org/2000/svg">
<g clip-path="url(#clip0_44_121)">
<path d="M80.4542 18.2034C80.5205 18.6753 80.5735 19.1471 80.6133 19.6223C84.7787 19.1341 88.9175 18.6004 93 17.9951C88.8545 18.0016 84.6627 18.0732 80.4542 18.2034Z" fill="#0C413F"/>
<path d="M47.9166 13.4C47.9166 13.2406 47.8868 13.0746 47.8736 12.9217C47.0355 13.0534 46.1872 13.1122 45.3386 13.0974L45.3883 13.6278C45.4413 14.2169 45.4943 14.7701 45.5175 15.3233C45.5904 17.0221 45.6335 18.6004 45.6501 20.0844C37.8429 20.6962 29.8932 21.3568 21.9668 22.1541C21.9668 22.8636 21.9602 23.5621 21.9469 24.2499C29.8999 23.8854 37.8528 23.3842 45.6401 22.8505C45.6037 25.0569 45.491 27.0811 45.3087 29.0337C45.259 29.5544 45.1861 30.0783 45.1099 30.6316C44.9037 31.8466 44.8084 33.0773 44.8249 34.3089C44.8381 34.6395 44.9845 34.9514 45.2318 35.176C45.4791 35.4006 45.8072 35.5195 46.1438 35.5065C46.4804 35.4936 46.798 35.3498 47.0267 35.1069C47.2554 34.864 47.3764 34.5419 47.3633 34.2113C47.3544 33.1211 47.442 32.0323 47.625 30.957C47.7013 30.4038 47.7808 29.831 47.8371 29.2583C48.2348 25.1774 48.3077 20.8459 48.0658 15.2094C48.0293 14.6041 47.973 13.9923 47.9166 13.4Z" fill="#0C413F"/>
<path d="M81.4682 6.19504C81.6554 5.37165 81.6323 4.51559 81.401 3.70308C81.1698 2.89057 80.7375 2.14684 80.1427 1.53813C79.6433 1.04744 79.0106 0.708483 78.3201 0.561842C77.6884 0.468525 77.0429 0.533225 76.4434 0.749955C75.8439 0.966684 75.3097 1.32844 74.8904 1.80173C73.8963 2.83985 72.8525 4.77941 72.8624 6.58881C72.8949 7.73528 73.1188 8.86873 73.5251 9.94399C71.8119 10.123 70.0987 9.573 68.2928 8.99699C67.9879 8.89936 67.683 8.80173 67.3815 8.71061C66.0792 8.31033 64.7636 7.80917 63.4912 7.32428C62.4573 6.93051 61.3902 6.52372 60.31 6.16249L58.4443 5.53116C57.2216 5.11461 55.959 4.68179 54.6998 4.28476C53.0429 3.75756 51.0547 3.328 49.1427 4.13506C47.4162 4.86077 46.1073 6.49769 45.5605 8.57393C42.7936 8.57393 39.8543 7.77663 36.9746 6.98583C35.4371 6.56277 33.9923 6.16575 32.5508 5.88262C30.2282 5.39573 27.8573 5.16649 25.4826 5.19922H25.4064C23.501 5.25129 20.8931 5.32288 19.16 6.82637C18.2502 7.66661 17.6461 8.77662 17.4402 9.98629C17.0425 11.9389 17.2513 13.8687 17.4402 15.7269C17.5396 16.6251 17.6324 17.4744 17.6556 18.3303C17.7019 19.8143 17.7218 21.2364 17.7152 22.613C11.7505 23.2638 5.82883 23.97 0.0165405 24.8226C5.8454 24.8226 11.7571 24.6664 17.6887 24.4354C17.6324 26.1699 17.5628 27.8361 17.4203 29.4633C17.3666 30.0794 17.2781 30.6922 17.1552 31.2987C16.9419 32.2888 16.8528 33.3008 16.8901 34.3122C16.9029 34.6342 17.0423 34.9388 17.2789 35.1621C17.5156 35.3854 17.8311 35.51 18.1592 35.5098H18.2255C18.3928 35.5035 18.5572 35.4648 18.7092 35.3959C18.8612 35.3269 18.9978 35.2292 19.1111 35.1082C19.2245 34.9872 19.3123 34.8453 19.3696 34.6909C19.4269 34.5364 19.4525 34.3723 19.445 34.2081C19.4099 33.3803 19.4811 32.5515 19.6571 31.7413C19.7932 31.0527 19.8916 30.3575 19.952 29.6585C20.2385 25.8687 20.3148 22.0664 20.1806 18.2685C20.1508 17.328 20.0481 16.3908 19.9487 15.4861C19.7598 13.7352 19.5808 12.0821 19.9023 10.494C20.0102 9.81969 20.3313 9.19582 20.8202 8.71061C21.8607 7.80266 23.8489 7.73432 25.4594 7.70503H25.5157C27.6999 7.67952 29.88 7.89787 32.014 8.35589C33.356 8.61949 34.7644 9.00675 36.2556 9.41679C41.3653 10.8161 47.1611 12.4042 52.1847 9.35171C52.343 9.27456 52.4831 9.16588 52.5963 9.0326C52.7095 8.89932 52.7931 8.74435 52.8419 8.57758C52.8907 8.4108 52.9036 8.23587 52.8798 8.06392C52.856 7.89197 52.796 7.72678 52.7036 7.57887C52.6112 7.43095 52.4884 7.30356 52.3431 7.2048C52.1978 7.10605 52.0332 7.03809 51.8597 7.00526C51.6862 6.97243 51.5076 6.97545 51.3354 7.01413C51.1631 7.05281 51.0009 7.12629 50.8592 7.2299C50.0823 7.70125 49.2363 8.05248 48.3507 8.27128C48.6977 7.47583 49.3263 6.83074 50.1202 6.45538C51.2668 5.97374 52.6155 6.27965 53.9012 6.68643C55.1306 7.0737 56.3799 7.50001 57.5861 7.91331L59.4683 8.56417C60.4955 8.90587 61.5394 9.30615 62.5501 9.69015C63.8755 10.1881 65.201 10.7055 66.5961 11.1286L67.4842 11.4084C69.6116 12.0886 71.8086 12.7915 74.2409 12.4042L74.4696 12.3652C74.5988 12.6613 74.7247 12.9542 74.844 13.2504C75.5037 14.91 75.9566 16.6419 76.1927 18.4084C67.4113 18.7339 58.5901 19.2545 49.9214 19.8403C49.9214 20.7862 49.9214 21.6985 49.9214 22.5772C58.663 21.8873 67.5571 21.1095 76.3783 20.1462C76.7494 24.7706 76.0966 29.6195 75.4902 34.0779V34.1397C75.4678 34.3021 75.4783 34.4673 75.521 34.6257C75.5637 34.7842 75.6378 34.9328 75.7391 35.0631C75.8403 35.1934 75.9668 35.3028 76.1111 35.385C76.2555 35.4672 76.415 35.5207 76.5804 35.5423C76.6367 35.5456 76.6931 35.5456 76.7494 35.5423C77.0568 35.542 77.3536 35.4323 77.5851 35.2337C77.8166 35.0351 77.967 34.761 78.0086 34.4619V34.4001C78.9696 27.335 80.0565 19.3294 77.2034 12.3164C77.1007 12.0658 76.9979 11.8185 76.872 11.5679C79.0193 10.5233 80.9446 8.71712 81.4682 6.19504ZM78.9762 5.70689C78.6449 7.24943 77.3823 8.4763 75.9243 9.20852C75.5993 8.36359 75.418 7.47197 75.3875 6.56928C75.3875 5.66458 75.9873 4.29127 76.7328 3.50048C76.9742 3.21878 77.3176 3.04024 77.6905 3.00257C77.7302 2.99905 77.7701 2.99905 77.8098 3.00257C78.0173 3.05938 78.2044 3.17211 78.3499 3.328C78.6442 3.64416 78.8551 4.02628 78.9643 4.44097C79.0735 4.85565 79.0776 5.29029 78.9762 5.70689Z" fill="#0C413F"/>
</g>
<defs>
<clipPath id="clip0_44_121">
<rect width="93" height="35" fill="white" transform="translate(0 0.5)"/>
</clipPath>
</defs>
</svg>
