<svg width="356" height="49" viewBox="0 0 356 49" fill="none" xmlns="http://www.w3.org/2000/svg">
<g clip-path="url(#clip0_138_389)">
<path d="M3.83531 0L23.5008 41.4822L40.5775 0.950991H45.8127V2.04463L43.8951 5.01172V43.3366L45.8127 46.3037V47.3498H37.3367V46.3037L39.2543 43.3366V6.74252L22.053 47.3498H20.9983L3.83531 11.0695V43.3366L5.75296 46.3037V47.3498H0.958826V46.3037L2.81895 43.3366V8.84421L0 2.91003L3.83531 0Z" fill="#0C413F"/>
<path d="M64.3276 16.5092C62.1705 16.581 60.0503 17.0857 58.0953 17.9927L54.8544 24.2312H53.7901V18.7345C55.4777 17.3746 60.2718 15.4536 64.3372 15.4536C72.2475 15.4536 77.1184 18.7345 77.1184 26.0286V43.3366L78.9785 46.3037V47.3498H72.6119V45.1245C70.0218 47.2915 66.7175 48.4358 63.3305 48.3389C56.5324 48.3389 49.5521 44.8772 49.5521 36.2232C49.5521 29.1764 55.1037 26.3329 60.0225 26.3329C63.8578 26.3329 71.8065 29.1859 72.6119 29.3666V24.5451C72.6119 20.2181 69.6875 16.5092 64.3276 16.5092ZM64.3276 47.1026C65.8845 47.1128 67.4262 46.7989 68.8531 46.1814C70.2801 45.5638 71.5606 44.6563 72.6119 43.5173V30.4792C71.8065 30.232 64.9413 27.883 61.71 27.883C57.031 27.883 54.2312 31.221 54.2312 36.9079C54.2312 41.9767 57.1556 47.1026 64.3276 47.1026Z" fill="#0C413F"/>
<path d="M132.826 15.4536C137.755 15.4536 143.613 17.8025 143.613 23.0615V43.3366L145.483 46.3037V47.3498H137.256V46.3037L139.126 43.3366V24.5451C139.126 20.2181 135.818 17.0037 131.148 17.0037C129.461 17.0037 122.174 19.1054 119.556 19.9042V43.3366L121.474 46.3037V47.3498H113.247V46.3037L115.165 43.3366V20.5129L113.247 17.5458V16.4426H119.604V18.7916C122.356 17.9262 130.65 15.4536 132.826 15.4536Z" fill="#0C413F"/>
<path d="M163.087 16.5092C160.93 16.5821 158.81 17.0867 156.854 17.9927L153.614 24.2312H152.559V18.7345C154.237 17.3746 159.041 15.4536 163.106 15.4536C171.026 15.4536 175.887 18.7345 175.887 26.0286V43.3366L177.805 46.3037V47.3498H171.448V45.1245C168.855 47.2937 165.547 48.4382 162.157 48.3389C155.368 48.3389 148.388 44.8772 148.388 36.2232C148.388 29.1764 153.93 26.3329 158.858 26.3329C162.694 26.3329 170.633 29.1859 171.448 29.3666V24.5451C171.381 20.2181 168.447 16.5092 163.087 16.5092ZM163.087 47.1026C164.645 47.1141 166.189 46.8009 167.617 46.1833C169.046 45.5657 170.328 44.6575 171.381 43.5173V30.4792C170.566 30.232 163.71 27.883 160.469 27.883C155.8 27.883 152.99 31.221 152.99 36.9079C152.99 41.9767 155.924 47.1026 163.087 47.1026Z" fill="#0C413F"/>
<path d="M199.177 5.01172L196.742 2.04463V0.950989H205.659V2.04463L204.345 5.01172L219.926 41.235L235.2 5.01172L233.886 2.04463V0.950989H238.681V2.04463L236.255 5.01172L220.425 42.4047L221.738 45.4383L217.903 48.2913L199.177 5.01172Z" fill="#0C413F"/>
<path d="M243.388 5.50624C244.288 5.53466 245.143 5.90119 245.781 6.53157C246.418 7.16196 246.79 8.00906 246.821 8.90128C246.821 9.81179 246.456 10.685 245.807 11.3288C245.158 11.9727 244.278 12.3344 243.36 12.3344C242.442 12.3344 241.561 11.9727 240.912 11.3288C240.263 10.685 239.898 9.81179 239.898 8.90128C239.932 8.00021 240.313 7.14631 240.962 6.51493C241.611 5.88356 242.479 5.52262 243.388 5.50624ZM246.265 43.3366L248.135 46.3037V47.3498H239.898V46.3037L241.816 43.3366V20.5129L239.898 17.5458V16.4426H246.255L246.265 43.3366Z" fill="#0C413F"/>
<path d="M258.73 43.3366L260.647 46.3037V47.3498H252.421V46.3037L254.338 43.3366V5.01172L252.421 2.04463V0.950989H258.778L258.73 43.3366Z" fill="#0C413F"/>
<path d="M280.313 48.3389C277.058 48.3496 273.872 47.41 271.153 45.6371C268.433 43.8642 266.299 41.3365 265.018 38.3691C263.737 35.4017 263.364 32.1259 263.948 28.95C264.531 25.7742 266.044 22.8389 268.297 20.5101C270.551 18.1813 273.446 16.5619 276.622 15.854C279.797 15.146 283.112 15.3808 286.154 16.529C289.196 17.6772 291.83 19.6881 293.727 22.3108C295.624 24.9336 296.701 28.0523 296.824 31.2781V32.3337H268.471C268.596 40.7404 272.959 47.2928 281.185 47.2928C288.789 47.2928 293.458 40.9211 294.954 37.2123L295.577 38.1633C294.331 41.1652 292.216 43.7337 289.499 45.5447C286.783 47.3556 283.586 48.3279 280.313 48.3389ZM292.154 31.2781C291.963 23.1186 287.6 16.5092 280.313 16.5092C273.026 16.5092 268.654 23.1661 268.471 31.2781H292.154Z" fill="#0C413F"/>
<path d="M306.134 43.3366L308.052 46.3037V47.3498H299.825V46.3037L301.743 43.3366V5.01172L299.825 2.04463V0.950989H306.182L306.134 43.3366Z" fill="#0C413F"/>
<path d="M326.001 16.5092C323.844 16.581 321.724 17.0857 319.768 17.9927L316.528 24.2312H315.454V18.7345C317.141 17.3746 321.935 15.4536 326.001 15.4536C333.911 15.4536 338.772 18.7345 338.772 26.0286V43.3366L340.642 46.3037V47.3498H334.285V45.1245C331.695 47.2915 328.391 48.4358 325.004 48.3389C318.206 48.3389 311.225 44.8772 311.225 36.2232C311.225 29.1764 316.777 26.3329 321.696 26.3329C325.531 26.3329 333.48 29.1859 334.285 29.3666V24.5451C334.256 20.2181 331.332 16.5092 326.001 16.5092ZM326.001 47.1026C327.558 47.1128 329.099 46.7989 330.526 46.1814C331.953 45.5638 333.234 44.6563 334.285 43.5173V30.4792C333.48 30.232 326.614 27.883 323.383 27.883C318.704 27.883 315.904 31.221 315.904 36.9079C315.876 41.9767 318.8 47.1026 326.001 47.1026Z" fill="#0C413F"/>
<path d="M106.88 43.3366L108.798 46.3037V47.3498H100.571V46.3037L102.489 43.3366V20.5129L100.571 17.5458V16.4426H106.928L106.88 43.3366Z" fill="#0C413F"/>
<path d="M104.014 5.91516C104.805 5.9389 105.558 6.26084 106.119 6.81553C106.68 7.37022 107.007 8.11601 107.034 8.90127C107.034 9.70333 106.713 10.4725 106.141 11.0397C105.569 11.6068 104.793 11.9254 103.985 11.9254C103.176 11.9254 102.401 11.6068 101.829 11.0397C101.257 10.4725 100.936 9.70333 100.936 8.90127C100.965 8.10714 101.301 7.35452 101.874 6.79883C102.446 6.24314 103.212 5.92681 104.014 5.91516Z" fill="#0C413F"/>
<path d="M100.926 11.4119C100.321 10.7077 99.9822 9.81673 99.9673 8.89176C99.9749 8.68755 99.9973 8.48415 100.034 8.28313C95.8827 10.1376 92.1912 13.8845 89.3243 18.8581V16.4426H82.9673V17.4982L84.8849 20.4653V43.3366L82.9673 46.3037V47.3498H91.194V46.3037L89.2764 43.3366V21.0835C91.7405 16.4426 95.5279 11.4119 100.926 11.4119Z" fill="#0C413F"/>
<path d="M355.162 2.9697H347.025V3.97939L348.521 6.8303L350.495 36.3491H351.692L353.666 6.8303L355.162 3.97939V2.9697ZM348.102 44.4267C348.102 46.0897 349.538 47.5152 351.213 47.5152C352.829 47.5152 354.265 46.0897 354.265 44.4267C354.265 42.823 352.829 41.3976 351.213 41.3976C349.538 41.3976 348.102 42.823 348.102 44.4267Z" fill="#0C413F"/>
</g>
<defs>
<clipPath id="clip0_138_389">
<rect width="356" height="49" fill="white"/>
</clipPath>
</defs>
</svg>
