<svg width="232" height="64" viewBox="0 0 232 64" fill="none" xmlns="http://www.w3.org/2000/svg">
<path d="M2 62L0.500001 62L0.500001 63.5L2 63.5L2 62ZM0.500004 -2.16371e-06L0.500004 3.875L3.5 3.875L3.5 -2.03258e-06L0.500004 -2.16371e-06ZM0.500003 11.625L0.500003 19.375L3.5 19.375L3.5 11.625L0.500003 11.625ZM0.500003 27.125L0.500002 34.875L3.5 34.875L3.5 27.125L0.500003 27.125ZM0.500002 42.625L0.500002 50.375L3.5 50.375L3.5 42.625L0.500002 42.625ZM0.500001 58.125L0.500001 62L3.5 62L3.5 58.125L0.500001 58.125ZM2 63.5L6 63.5L6 60.5L2 60.5L2 63.5ZM14 63.5L22 63.5L22 60.5L14 60.5L14 63.5ZM30 63.5L38 63.5L38 60.5L30 60.5L30 63.5ZM46 63.5L50 63.5L50 60.5L46 60.5L46 63.5Z" fill="#D3B8B1"/>
<path d="M22.928 12H16.4V12.816L17.84 15.12V44.88L16.4 47.184V48H22.928V47.184L21.488 44.88V15.12L22.928 12.816V12ZM32.6398 25.824V24H27.7438V24.816L29.1838 27.12V44.88L27.7438 47.184V48H34.0798V47.184L32.6398 44.88V26.688C34.6558 26.064 40.2718 24.432 41.5678 24.432C45.1678 24.432 47.7118 26.928 47.7118 30.288V44.88L46.2718 47.184V48H52.6078V47.184L51.1678 44.88V29.136C51.1678 25.056 46.6558 23.232 42.8638 23.232C41.1838 23.232 34.7998 25.152 32.6398 25.824ZM75.5709 26.352C74.6589 25.44 71.2989 24.144 71.2989 20.4C71.2989 18.192 73.2189 16.944 75.6669 16.944C80.4189 16.944 81.6189 21.216 81.8589 24H80.4669V24.816H81.9069V42.864C81.9069 46.944 85.5549 48.768 89.3469 48.768C91.9869 48.768 94.7229 46.416 95.1549 46.08L94.7709 45.504C94.3389 45.792 91.6989 47.952 89.7789 47.952C86.1789 47.952 85.3629 45.072 85.3629 41.712V24.816H90.8829V24H85.3149C84.9309 19.152 80.8029 16.128 76.0509 16.128C72.6909 16.128 69.9549 17.616 69.9549 20.784C69.9549 21.84 70.3869 22.944 70.9629 23.952C69.6189 23.52 68.0829 23.232 66.3069 23.232C60.6909 23.232 56.3229 26.208 56.3229 30.432C56.3229 39.792 73.8909 35.328 73.8909 43.008C73.8909 46.416 69.2829 47.952 66.2589 47.952C63.3789 47.952 60.1629 46.992 59.0589 46.128L56.5629 41.28H55.7469V45.552C57.0429 46.608 61.5069 48.768 66.2589 48.768C71.0109 48.768 77.3469 46.992 77.3469 41.808C77.3469 32.352 59.5389 36.288 59.5389 29.088C59.5389 25.968 63.3309 24.048 66.3069 24.048C69.6669 24.048 71.6349 25.248 72.2589 25.776L74.7549 30.624H75.5709V26.352ZM112.934 30.288V34.032C112.31 33.888 106.166 31.68 103.238 31.68C99.4464 31.68 95.1744 33.888 95.1744 39.36C95.1744 46.08 100.55 48.768 105.782 48.768C109.094 48.768 111.59 47.52 112.934 46.272V48H117.83V47.184L116.39 44.88V31.44C116.39 25.776 112.646 23.232 106.55 23.232C103.43 23.232 99.7344 24.72 98.4384 25.776V30.048H99.2544L101.75 25.2C102.854 24.672 104.822 24.048 106.55 24.048C110.678 24.048 112.934 26.928 112.934 30.288ZM98.7744 39.888C98.7744 35.472 100.934 32.88 104.534 32.88C107.03 32.88 112.31 34.704 112.934 34.896V45.024C111.782 46.32 109.574 47.808 106.55 47.808C101.03 47.808 98.7744 43.824 98.7744 39.888ZM133.526 43.248C139.718 43.248 144.71 38.784 144.71 33.264C144.71 29.808 142.742 26.736 139.718 24.96C141.014 23.04 142.166 23.328 144.47 24.384L146.006 20.928C143.03 20.928 141.254 21.168 139.094 24.576C137.462 23.76 135.542 23.28 133.526 23.28C127.286 23.28 122.342 27.744 122.342 33.264C122.342 36.336 123.878 39.12 126.326 40.944C125.222 41.376 124.022 42.336 124.022 43.44C124.022 44.928 125.222 45.792 127.046 46.416C124.79 46.848 120.71 48.432 120.71 51.84C120.71 55.296 124.31 58.368 132.902 58.368C139.382 58.368 146.006 55.92 146.006 52.272C146.006 43.488 124.838 47.856 124.838 43.44C124.838 42.432 126.038 41.664 126.998 41.424C128.822 42.576 131.078 43.248 133.526 43.248ZM124.31 51.504C124.31 48.432 126.374 47.184 127.958 46.704C133.334 48.192 142.406 48 142.406 52.272C142.406 54.864 139.382 57.552 132.902 57.552C126.23 57.552 124.31 54 124.31 51.504ZM125.942 33.264C125.942 28.272 128.87 24.048 133.526 24.048C138.23 24.048 141.11 28.272 141.11 33.264C141.11 38.304 138.23 42.432 133.526 42.432C128.87 42.432 125.942 38.304 125.942 33.264ZM167.624 25.92C165.704 23.952 162.584 23.232 160.76 23.232C157.544 23.232 155.384 24.816 154.28 25.872V24H149.384V24.816L150.824 27.12V44.88L149.384 47.184V48H155.72V47.184L154.28 44.88V26.832C155.336 25.776 157.4 24.048 160.04 24.048C162.2 24.048 163.112 24.48 164.312 25.344L166.808 30.192H167.624V25.92ZM162.248 39.36C162.248 46.08 167.624 48.768 172.856 48.768C176.168 48.768 178.664 47.52 180.008 46.272V48H184.904V47.184L183.464 44.88V31.44C183.464 25.776 179.72 23.232 173.624 23.232C171.704 23.232 169.544 23.808 167.864 24.48C168.2 24.672 168.536 24.96 168.872 25.2C169.976 24.672 171.896 24.048 173.624 24.048C177.752 24.048 180.008 26.928 180.008 30.288V34.032C179.384 33.888 173.24 31.68 170.312 31.68C166.52 31.68 162.248 33.888 162.248 39.36ZM165.848 39.888C165.848 35.472 168.008 32.88 171.608 32.88C174.104 32.88 179.384 34.704 180.008 34.896V45.024C178.856 46.32 176.648 47.808 173.624 47.808C168.104 47.808 165.848 43.824 165.848 39.888ZM194.124 25.344V24H189.228V24.816L190.668 27.12V44.88L189.228 47.184V48H195.564V47.184L194.124 44.88V26.208C196.62 25.44 200.364 24.432 201.42 24.432C205.02 24.432 207.564 26.928 207.564 30.288V44.88L206.124 47.184V48H212.46V47.184L211.02 44.88V29.136C211.02 28.08 210.732 27.168 210.204 26.448C212.652 25.68 217.164 24.432 218.316 24.432C221.916 24.432 224.46 26.928 224.46 30.288V44.88L223.02 47.184V48H229.356V47.184L227.916 44.88V29.136C227.916 25.056 223.404 23.232 219.612 23.232C217.98 23.232 212.028 25.008 209.676 25.728C208.044 24.048 205.212 23.232 202.716 23.232C201.324 23.232 196.908 24.48 194.124 25.344Z" fill="#0C413F"/>
</svg>
