<svg width="195" height="44" viewBox="0 0 195 44" fill="none" xmlns="http://www.w3.org/2000/svg">
<path d="M2 42L0.500002 42L0.500002 43.5L2 43.5L2 42ZM0.500004 -2.16371e-06L0.500004 3.5L3.5 3.5L3.5 -2.03258e-06L0.500004 -2.16371e-06ZM0.500003 10.5L0.500003 17.5L3.5 17.5L3.5 10.5L0.500003 10.5ZM0.500003 24.5L0.500002 31.5L3.5 31.5L3.5 24.5L0.500003 24.5ZM0.500002 38.5L0.500002 42L3.5 42L3.5 38.5L0.500002 38.5ZM2 43.5L6 43.5L6 40.5L2 40.5L2 43.5ZM14 43.5L22 43.5L22 40.5L14 40.5L14 43.5ZM30 43.5L38 43.5L38 40.5L30 40.5L30 43.5ZM46 43.5L50 43.5L50 40.5L46 40.5L46 43.5Z" fill="#D3B8B1"/>
<path d="M23.184 8H15.6V8.544L16.56 10.08V29.92L15.6 31.456V32H19.952V31.456L18.992 29.92V24.32H23.184C31.312 24.32 35.024 20.864 35.024 16.256C35.024 11.712 31.312 8 23.184 8ZM18.992 23.776V8.544H22.544C29.84 8.544 32.528 11.808 32.528 16.256C32.528 20.8 29.84 23.776 22.544 23.776H18.992ZM49.5725 17.28C48.2925 15.968 46.2125 15.488 44.9965 15.488C42.8525 15.488 41.4125 16.544 40.6765 17.248V16H37.4125V16.544L38.3725 18.08V29.92L37.4125 31.456V32H41.6365V31.456L40.6765 29.92V17.888C41.3805 17.184 42.7565 16.032 44.5165 16.032C45.9565 16.032 46.5645 16.32 47.3645 16.896L49.0285 20.128H49.5725V17.28ZM66.8738 27.264L66.5538 26.752C65.7858 28.672 63.3858 31.968 59.4818 31.968C55.2578 31.968 53.0178 28.576 52.9538 24.224H67.5138V23.68C67.3538 19.136 63.6418 15.488 59.0338 15.488C54.3298 15.488 50.5538 19.296 50.5538 24C50.5538 28.736 54.3298 32.512 59.0338 32.512C63.8338 32.512 66.3298 28.8 66.8738 27.264ZM52.9538 23.68C53.0498 19.456 55.2898 16.032 59.0338 16.032C62.7778 16.032 65.0178 19.456 65.1138 23.68H52.9538ZM73.1765 16.896V16H69.9125V16.544L70.8725 18.08V29.92L69.9125 31.456V32H74.1365V31.456L73.1765 29.92V17.472C74.8405 16.96 77.3365 16.288 78.0405 16.288C80.4405 16.288 82.1365 17.952 82.1365 20.192V29.92L81.1765 31.456V32H85.4005V31.456L84.4405 29.92V19.424C84.4405 18.72 84.2485 18.112 83.8965 17.632C85.5285 17.12 88.5365 16.288 89.3045 16.288C91.7045 16.288 93.4005 17.952 93.4005 20.192V29.92L92.4405 31.456V32H96.6645V31.456L95.7045 29.92V19.424C95.7045 16.704 92.6965 15.488 90.1685 15.488C89.0805 15.488 85.1125 16.672 83.5445 17.152C82.4565 16.032 80.5685 15.488 78.9045 15.488C77.9765 15.488 75.0325 16.32 73.1765 16.896ZM102.802 16H99.5375V16.544L100.498 18.08V29.92L99.5375 31.456V32H103.762V31.456L102.802 29.92V16ZM99.5375 12.096C99.5375 13.056 100.37 13.888 101.33 13.888C102.258 13.888 103.09 13.056 103.09 12.096C103.09 11.168 102.258 10.336 101.33 10.336C100.37 10.336 99.5375 11.168 99.5375 12.096ZM118.175 20.192V22.688C117.759 22.592 113.663 21.12 111.711 21.12C109.183 21.12 106.335 22.592 106.335 26.24C106.335 30.72 109.919 32.512 113.407 32.512C115.615 32.512 117.279 31.68 118.175 30.848V32H121.439V31.456L120.479 29.92V20.96C120.479 17.184 117.983 15.488 113.919 15.488C111.839 15.488 109.375 16.48 108.511 17.184V20.032H109.055L110.719 16.8C111.455 16.448 112.767 16.032 113.919 16.032C116.671 16.032 118.175 17.952 118.175 20.192ZM108.735 26.592C108.735 23.648 110.175 21.92 112.575 21.92C114.239 21.92 117.759 23.136 118.175 23.264V30.016C117.407 30.88 115.935 31.872 113.919 31.872C110.239 31.872 108.735 29.216 108.735 26.592ZM132.607 16.032C134.847 16.032 136.703 16.928 137.087 17.664L138.751 20.896H139.295V18.048C138.431 17.056 135.967 15.488 132.607 15.488C127.455 15.488 123.679 19.296 123.679 24C123.679 28.384 126.911 31.936 131.103 32.448L130.655 34.368C131.135 34.208 131.391 34.08 132.127 34.08C133.279 34.08 133.695 35.104 133.503 35.968C133.311 36.832 132.639 37.44 131.519 37.44C130.719 37.44 130.239 37.088 130.079 36.96L129.919 37.216C130.015 37.376 130.879 37.984 131.999 37.984C133.471 37.984 135.039 37.12 135.039 35.552C135.039 33.856 133.343 33.408 132.479 33.408C131.903 33.408 131.583 33.472 131.391 33.536L131.647 32.512H132.159C137.599 32.512 139.679 28.704 139.999 27.264L139.679 26.752C139.167 28.64 137.151 31.968 132.607 31.968C128.319 31.968 126.079 28.448 126.079 24C126.079 19.616 128.319 16.032 132.607 16.032ZM150.253 32.512C154.957 32.512 158.733 28.736 158.733 24C158.733 19.296 154.957 15.488 150.253 15.488C145.549 15.488 141.773 19.296 141.773 24C141.773 28.736 145.549 32.512 150.253 32.512ZM144.173 24C144.173 19.616 146.413 16.032 150.253 16.032C154.093 16.032 156.333 19.616 156.333 24C156.333 28.448 154.093 31.968 150.253 31.968C146.413 31.968 144.173 28.448 144.173 24ZM146.861 12.96L147.085 13.184C147.373 12.608 147.757 12.288 148.525 12.288C149.805 12.288 150.317 13.632 151.853 13.632C153.325 13.632 153.805 12.192 153.869 11.68L153.645 11.456C153.453 11.936 153.069 12.16 152.525 12.16C151.149 12.16 150.573 10.816 149.133 10.816C147.469 10.816 146.957 12.288 146.861 12.96ZM176.968 27.264L176.648 26.752C175.88 28.672 173.48 31.968 169.576 31.968C165.352 31.968 163.112 28.576 163.048 24.224H177.608V23.68C177.448 19.136 173.736 15.488 169.128 15.488C164.424 15.488 160.648 19.296 160.648 24C160.648 28.736 164.424 32.512 169.128 32.512C173.928 32.512 176.424 28.8 176.968 27.264ZM163.048 23.68C163.144 19.456 165.384 16.032 169.128 16.032C172.872 16.032 175.112 19.456 175.208 23.68H163.048ZM192.422 17.568C191.558 16.864 189.414 15.488 186.246 15.488C182.502 15.488 179.59 17.472 179.59 20.288C179.59 26.528 191.302 23.552 191.302 28.672C191.302 30.944 188.23 31.968 186.214 31.968C184.294 31.968 182.15 31.328 181.414 30.752L179.75 27.52H179.206V30.368C180.07 31.072 183.046 32.512 186.214 32.512C189.382 32.512 193.606 31.328 193.606 27.872C193.606 21.568 181.734 24.192 181.734 19.392C181.734 17.312 184.262 16.032 186.246 16.032C188.486 16.032 189.798 16.832 190.214 17.184L191.878 20.416H192.422V17.568Z" fill="#0C413F"/>
</svg>
