<svg width="359" height="64" viewBox="0 0 359 64" fill="none" xmlns="http://www.w3.org/2000/svg">
<path d="M2 62L0.500001 62L0.500001 63.5L2 63.5L2 62ZM0.500004 -2.16371e-06L0.500004 3.875L3.5 3.875L3.5 -2.03258e-06L0.500004 -2.16371e-06ZM0.500003 11.625L0.500003 19.375L3.5 19.375L3.5 11.625L0.500003 11.625ZM0.500003 27.125L0.500002 34.875L3.5 34.875L3.5 27.125L0.500003 27.125ZM0.500002 42.625L0.500002 50.375L3.5 50.375L3.5 42.625L0.500002 42.625ZM0.500001 58.125L0.500001 62L3.5 62L3.5 58.125L0.500001 58.125ZM2 63.5L6 63.5L6 60.5L2 60.5L2 63.5ZM14 63.5L22 63.5L22 60.5L14 60.5L14 63.5ZM30 63.5L38 63.5L38 60.5L30 60.5L30 63.5ZM46 63.5L50 63.5L50 60.5L46 60.5L46 63.5Z" fill="#D3B8B1"/>
<path d="M27.776 12H16.4V12.816L17.84 15.12V44.88L16.4 47.184V48H22.928V47.184L21.488 44.88V36.48H27.776C39.968 36.48 45.536 31.296 45.536 24.384C45.536 17.568 39.968 12 27.776 12ZM21.488 35.664V12.816H26.816C37.76 12.816 41.792 17.712 41.792 24.384C41.792 31.2 37.76 35.664 26.816 35.664H21.488ZM67.3588 25.92C65.4388 23.952 62.3188 23.232 60.4948 23.232C57.2788 23.232 55.1188 24.816 54.0148 25.872V24H49.1188V24.816L50.5588 27.12V44.88L49.1188 47.184V48H55.4548V47.184L54.0148 44.88V26.832C55.0708 25.776 57.1348 24.048 59.7748 24.048C61.9348 24.048 62.8468 24.48 64.0468 25.344L66.5428 30.192H67.3588V25.92ZM81.5506 48.768C88.6066 48.768 94.2706 43.104 94.2706 36C94.2706 28.944 88.6066 23.232 81.5506 23.232C74.4946 23.232 68.8306 28.944 68.8306 36C68.8306 43.104 74.4946 48.768 81.5506 48.768ZM72.4306 36C72.4306 29.424 75.7906 24.048 81.5506 24.048C87.3106 24.048 90.6706 29.424 90.6706 36C90.6706 42.672 87.3106 47.952 81.5506 47.952C75.7906 47.952 72.4306 42.672 72.4306 36ZM110.535 24.048C113.895 24.048 116.679 25.392 117.255 26.496L119.751 31.344H120.567V27.072C119.271 25.584 115.575 23.232 110.535 23.232C102.807 23.232 97.1431 28.944 97.1431 36C97.1431 43.104 102.807 48.768 109.863 48.768C118.023 48.768 121.143 43.056 121.623 40.896L121.143 40.128C120.375 42.96 117.351 47.952 110.535 47.952C104.103 47.952 100.743 42.672 100.743 36C100.743 29.424 104.103 24.048 110.535 24.048ZM148.764 40.896L148.284 40.128C147.132 43.008 143.532 47.952 137.676 47.952C131.34 47.952 127.98 42.864 127.884 36.336H149.724V35.52C149.484 28.704 143.916 23.232 137.004 23.232C129.948 23.232 124.284 28.944 124.284 36C124.284 43.104 129.948 48.768 137.004 48.768C144.204 48.768 147.948 43.2 148.764 40.896ZM127.884 35.52C128.028 29.184 131.388 24.048 137.004 24.048C142.62 24.048 145.98 29.184 146.124 35.52H127.884ZM175.738 12H170.842V12.816L172.282 15.12V25.824C171.658 25.68 163.93 23.232 162.106 23.232C155.962 23.232 152.362 27.84 152.362 36C152.362 43.104 157.882 48.768 164.938 48.768C167.53 48.768 170.266 47.856 172.282 46.32V48H177.178V47.184L175.738 44.88V12.816C176.842 12.816 177.946 12.576 178.81 12.384C185.194 10.896 189.754 12.288 189.754 16.224C189.754 18.576 188.65 20.112 186.73 20.688C187.114 20.208 187.306 19.632 187.306 19.056C187.306 17.664 186.058 16.416 184.666 16.416C183.226 16.416 181.978 17.664 181.978 19.056C181.978 20.496 183.226 21.744 184.666 21.744H184.906C188.506 21.744 190.57 19.248 190.57 16.224C190.57 11.328 185.194 10.272 178.81 11.568C177.898 11.76 176.746 12 175.738 12ZM155.962 36C155.962 28.32 158.554 24.432 163.402 24.432C164.554 24.432 171.658 26.496 172.282 26.688V45.168C170.458 46.944 168.01 47.952 165.082 47.952C159.322 47.952 155.962 42.672 155.962 36ZM181.978 48H188.314V47.184L186.874 44.88V24H181.978V24.816L183.418 27.12V44.88L181.978 47.184V48ZM198.015 25.344V24H193.119V24.816L194.559 27.12V44.88L193.119 47.184V48H199.455V47.184L198.015 44.88V26.208C200.511 25.44 204.255 24.432 205.311 24.432C208.911 24.432 211.455 26.928 211.455 30.288V44.88L210.015 47.184V48H216.351V47.184L214.911 44.88V29.136C214.911 28.08 214.623 27.168 214.095 26.448C216.543 25.68 221.055 24.432 222.207 24.432C225.807 24.432 228.351 26.928 228.351 30.288V44.88L226.911 47.184V48H233.247V47.184L231.807 44.88V29.136C231.807 25.056 227.295 23.232 223.503 23.232C221.871 23.232 215.919 25.008 213.567 25.728C211.935 24.048 209.103 23.232 206.607 23.232C205.215 23.232 200.799 24.48 198.015 25.344ZM261.076 40.896L260.596 40.128C259.444 43.008 255.844 47.952 249.988 47.952C243.652 47.952 240.292 42.864 240.196 36.336H262.036V35.52C261.796 28.704 256.228 23.232 249.316 23.232C242.26 23.232 236.596 28.944 236.596 36C236.596 43.104 242.26 48.768 249.316 48.768C256.516 48.768 260.26 43.2 261.076 40.896ZM240.196 35.52C240.34 29.184 243.7 24.048 249.316 24.048C254.932 24.048 258.292 29.184 258.436 35.52H240.196ZM270.53 25.824V24H265.634V24.816L267.074 27.12V44.88L265.634 47.184V48H271.97V47.184L270.53 44.88V26.688C272.546 26.064 278.162 24.432 279.458 24.432C283.058 24.432 285.602 26.928 285.602 30.288V44.88L284.162 47.184V48H290.498V47.184L289.058 44.88V29.136C289.058 25.056 284.546 23.232 280.754 23.232C279.074 23.232 272.69 25.152 270.53 25.824ZM299.254 19.488H294.358V20.304L295.798 22.608V24H294.358V24.816H295.798V42.864C295.798 46.944 299.446 48.768 303.238 48.768C305.878 48.768 308.614 46.416 309.046 46.08L308.662 45.504C308.23 45.792 305.59 47.952 303.67 47.952C300.07 47.952 299.254 45.072 299.254 41.712V24.816H304.773V24H299.254V19.488ZM320.848 48.768C327.904 48.768 333.568 43.104 333.568 36C333.568 28.944 327.904 23.232 320.848 23.232C313.792 23.232 308.128 28.944 308.128 36C308.128 43.104 313.792 48.768 320.848 48.768ZM311.728 36C311.728 29.424 315.088 24.048 320.848 24.048C326.608 24.048 329.968 29.424 329.968 36C329.968 42.672 326.608 47.952 320.848 47.952C315.088 47.952 311.728 42.672 311.728 36ZM356.024 26.352C354.728 25.296 351.512 23.232 346.76 23.232C341.144 23.232 336.776 26.208 336.776 30.432C336.776 39.792 354.344 35.328 354.344 43.008C354.344 46.416 349.736 47.952 346.712 47.952C343.832 47.952 340.616 46.992 339.512 46.128L337.016 41.28H336.2V45.552C337.496 46.608 341.96 48.768 346.712 48.768C351.464 48.768 357.8 46.992 357.8 41.808C357.8 32.352 339.992 36.288 339.992 29.088C339.992 25.968 343.784 24.048 346.76 24.048C350.12 24.048 352.088 25.248 352.712 25.776L355.208 30.624H356.024V26.352Z" fill="#0C413F"/>
</svg>
