<svg width="637" height="162" viewBox="0 0 637 162" fill="none" xmlns="http://www.w3.org/2000/svg">
<rect x="2" width="148" height="160" fill="#D3B8B1"/>
<path d="M1.99985 160L0.499852 160L0.499852 161.5L1.99985 161.5L1.99985 160ZM0.499855 85.8538L0.499855 89.5611L3.49985 89.5611L3.49986 85.8538L0.499855 85.8538ZM0.499855 96.9757L0.499854 104.39L3.49985 104.39L3.49985 96.9757L0.499855 96.9757ZM0.499854 111.805L0.499854 119.22L3.49985 119.22L3.49985 111.805L0.499854 111.805ZM0.499854 126.634L0.499853 134.049L3.49985 134.049L3.49985 126.634L0.499854 126.634ZM0.499853 141.463L0.499853 148.878L3.49985 148.878L3.49985 141.463L0.499853 141.463ZM0.499853 156.293L0.499852 160L3.49985 160L3.49985 156.293L0.499853 156.293ZM1.99985 161.5L5.77935 161.5L5.77935 158.5L1.99985 158.5L1.99985 161.5ZM13.3383 161.5L20.8973 161.5L20.8973 158.5L13.3383 158.5L13.3383 161.5ZM28.4563 161.5L36.0153 161.5L36.0153 158.5L28.4563 158.5L28.4563 161.5ZM43.5743 161.5L51.1333 161.5L51.1333 158.5L43.5743 158.5L43.5743 161.5ZM58.6923 161.5L66.2512 161.5L66.2512 158.5L58.6923 158.5L58.6923 161.5ZM73.8102 161.5L81.3692 161.5L81.3692 158.5L73.8102 158.5L73.8102 161.5ZM88.9282 161.5L96.4872 161.5L96.4872 158.5L88.9282 158.5L88.9282 161.5ZM104.046 161.5L107.826 161.5L107.826 158.5L104.046 158.5L104.046 161.5Z" fill="#0C413F"/>
<path d="M70.608 30H44.4V30.816L45.84 33.12V62.88L44.4 65.184V66H50.928V65.184L49.488 62.88V48.576H58.896L61.248 53.28H62.064V43.056H61.248L58.896 47.76H49.488V30.816H67.44L69.792 38.304H70.608V30ZM78.6398 42H73.7438V42.816L75.1838 45.12V62.88L73.7438 65.184V66H80.0798V65.184L78.6398 62.88V42ZM73.7438 36.144C73.7438 37.584 74.9918 38.832 76.4318 38.832C77.8238 38.832 79.0718 37.584 79.0718 36.144C79.0718 34.752 77.8238 33.504 76.4318 33.504C74.9918 33.504 73.7438 34.752 73.7438 36.144ZM97.332 42.048C100.692 42.048 103.476 43.392 104.052 44.496L106.548 49.344H107.364V45.072C106.068 43.584 102.372 41.232 97.332 41.232C89.604 41.232 83.94 46.944 83.94 54C83.94 61.104 89.604 66.768 96.66 66.768C104.82 66.768 107.94 61.056 108.42 58.896L107.94 58.128C107.172 60.96 104.148 65.952 97.332 65.952C90.9 65.952 87.54 60.672 87.54 54C87.54 47.424 90.9 42.048 97.332 42.048ZM123.801 66.768C130.857 66.768 136.521 61.104 136.521 54C136.521 46.944 130.857 41.232 123.801 41.232C116.745 41.232 111.081 46.944 111.081 54C111.081 61.104 116.745 66.768 123.801 66.768ZM114.681 54C114.681 47.424 118.041 42.048 123.801 42.048C129.561 42.048 132.921 47.424 132.921 54C132.921 60.672 129.561 65.952 123.801 65.952C118.041 65.952 114.681 60.672 114.681 54ZM159.841 64.176V66H164.737V65.184L163.297 62.88V42H158.401V42.816L159.841 45.12V63.312C157.825 63.936 152.209 65.568 150.913 65.568C147.313 65.568 144.769 63.072 144.769 59.712V42H139.873V42.816L141.313 45.12V60.864C141.313 64.944 145.825 66.768 149.617 66.768C151.297 66.768 157.681 64.848 159.841 64.176ZM193.988 42.048C197.348 42.048 200.132 43.392 200.708 44.496L203.204 49.344H204.02V45.072C202.724 43.584 199.028 41.232 193.988 41.232C186.26 41.232 180.596 46.944 180.596 54C180.596 61.104 186.26 66.768 193.316 66.768C201.476 66.768 204.596 61.056 205.076 58.896L204.596 58.128C203.828 60.96 200.804 65.952 193.988 65.952C187.556 65.952 184.196 60.672 184.196 54C184.196 47.424 187.556 42.048 193.988 42.048ZM220.457 66.768C227.513 66.768 233.177 61.104 233.177 54C233.177 46.944 227.513 41.232 220.457 41.232C213.401 41.232 207.737 46.944 207.737 54C207.737 61.104 213.401 66.768 220.457 66.768ZM211.337 54C211.337 47.424 214.697 42.048 220.457 42.048C226.217 42.048 229.577 47.424 229.577 54C229.577 60.672 226.217 65.952 220.457 65.952C214.697 65.952 211.337 60.672 211.337 54ZM241.905 43.344V42H237.009V42.816L238.449 45.12V62.88L237.009 65.184V66H243.345V65.184L241.905 62.88V44.208C244.401 43.44 248.145 42.432 249.201 42.432C252.801 42.432 255.345 44.928 255.345 48.288V62.88L253.905 65.184V66H260.241V65.184L258.801 62.88V47.136C258.801 46.08 258.513 45.168 257.985 44.448C260.433 43.68 264.945 42.432 266.097 42.432C269.697 42.432 272.241 44.928 272.241 48.288V62.88L270.801 65.184V66H277.137V65.184L275.697 62.88V47.136C275.697 43.056 271.185 41.232 267.393 41.232C265.761 41.232 259.809 43.008 257.457 43.728C255.825 42.048 252.993 41.232 250.497 41.232C249.105 41.232 244.689 42.48 241.905 43.344ZM310.247 48.288V52.032C309.623 51.888 303.479 49.68 300.551 49.68C296.759 49.68 292.487 51.888 292.487 57.36C292.487 64.08 297.863 66.768 303.095 66.768C306.407 66.768 308.903 65.52 310.247 64.272V66H315.143V65.184L313.703 62.88V49.44C313.703 43.776 309.959 41.232 303.863 41.232C300.743 41.232 297.047 42.72 295.751 43.776V48.048H296.567L299.063 43.2C300.167 42.672 302.135 42.048 303.863 42.048C307.991 42.048 310.247 44.928 310.247 48.288ZM296.087 57.888C296.087 53.472 298.247 50.88 301.847 50.88C304.343 50.88 309.623 52.704 310.247 52.896V63.024C309.095 64.32 306.887 65.808 303.863 65.808C298.343 65.808 296.087 61.824 296.087 57.888ZM324.359 30H319.463V30.816L320.903 33.12V62.88L319.463 65.184V66H325.799V65.184L324.359 62.88V30ZM341.995 61.248C348.187 61.248 353.179 56.784 353.179 51.264C353.179 47.808 351.211 44.736 348.187 42.96C349.483 41.04 350.635 41.328 352.939 42.384L354.475 38.928C351.499 38.928 349.723 39.168 347.563 42.576C345.931 41.76 344.011 41.28 341.995 41.28C335.755 41.28 330.811 45.744 330.811 51.264C330.811 54.336 332.347 57.12 334.795 58.944C333.691 59.376 332.491 60.336 332.491 61.44C332.491 62.928 333.691 63.792 335.515 64.416C333.259 64.848 329.179 66.432 329.179 69.84C329.179 73.296 332.779 76.368 341.371 76.368C347.851 76.368 354.475 73.92 354.475 70.272C354.475 61.488 333.307 65.856 333.307 61.44C333.307 60.432 334.507 59.664 335.467 59.424C337.291 60.576 339.547 61.248 341.995 61.248ZM332.779 69.504C332.779 66.432 334.843 65.184 336.427 64.704C341.803 66.192 350.875 66 350.875 70.272C350.875 72.864 347.851 75.552 341.371 75.552C334.699 75.552 332.779 72 332.779 69.504ZM334.411 51.264C334.411 46.272 337.339 42.048 341.995 42.048C346.699 42.048 349.579 46.272 349.579 51.264C349.579 56.304 346.699 60.432 341.995 60.432C337.339 60.432 334.411 56.304 334.411 51.264ZM377.341 64.176V66H382.237V65.184L380.797 62.88V42H375.901V42.816L377.341 45.12V63.312C375.325 63.936 369.709 65.568 368.413 65.568C364.813 65.568 362.269 63.072 362.269 59.712V42H357.373V42.816L358.813 45.12V60.864C358.813 64.944 363.325 66.768 367.117 66.768C368.797 66.768 375.181 64.848 377.341 64.176ZM391.952 43.344V42H387.056V42.816L388.496 45.12V62.88L387.056 65.184V66H393.392V65.184L391.952 62.88V44.208C394.448 43.44 398.192 42.432 399.248 42.432C402.848 42.432 405.392 44.928 405.392 48.288V62.88L403.952 65.184V66H410.288V65.184L408.848 62.88V47.136C408.848 46.08 408.56 45.168 408.032 44.448C410.48 43.68 414.992 42.432 416.144 42.432C419.744 42.432 422.288 44.928 422.288 48.288V62.88L420.848 65.184V66H427.184V65.184L425.744 62.88V47.136C425.744 43.056 421.232 41.232 417.44 41.232C415.808 41.232 409.856 43.008 407.504 43.728C405.872 42.048 403.04 41.232 400.544 41.232C399.152 41.232 394.736 42.48 391.952 43.344ZM448.294 48.288V52.032C447.67 51.888 441.526 49.68 438.598 49.68C434.806 49.68 430.534 51.888 430.534 57.36C430.534 64.08 435.91 66.768 441.142 66.768C444.454 66.768 446.95 65.52 448.294 64.272V66H453.19V65.184L451.75 62.88V49.44C451.75 43.776 448.006 41.232 441.91 41.232C438.79 41.232 435.094 42.72 433.798 43.776V48.048H434.614L437.11 43.2C438.214 42.672 440.182 42.048 441.91 42.048C446.038 42.048 448.294 44.928 448.294 48.288ZM434.134 57.888C434.134 53.472 436.294 50.88 439.894 50.88C442.39 50.88 447.67 52.704 448.294 52.896V63.024C447.142 64.32 444.934 65.808 441.91 65.808C436.39 65.808 434.134 61.824 434.134 57.888ZM491.925 30H487.029V30.816L488.469 33.12V43.824C487.845 43.68 480.117 41.232 478.293 41.232C472.149 41.232 468.549 45.84 468.549 54C468.549 61.104 474.069 66.768 481.125 66.768C483.717 66.768 486.453 65.856 488.469 64.32V66H493.365V65.184L491.925 62.88V30ZM472.149 54C472.149 46.32 474.741 42.432 479.589 42.432C480.741 42.432 487.845 44.496 488.469 44.688V63.168C486.645 64.944 484.197 65.952 481.269 65.952C475.509 65.952 472.149 60.672 472.149 54ZM517.638 64.176V66H522.534V65.184L521.094 62.88V42H516.198V42.816L517.638 45.12V63.312C515.622 63.936 510.006 65.568 508.71 65.568C505.11 65.568 502.566 63.072 502.566 59.712V42H497.67V42.816L499.11 45.12V60.864C499.11 64.944 503.622 66.768 507.414 66.768C509.094 66.768 515.478 64.848 517.638 64.176ZM507.798 39.168H508.614L514.086 33.12L510.006 32.496L507.798 39.168ZM537.648 66L548.976 42H546.288V42.816L546.576 45.12L538.56 62.16L529.056 42H524.736V42.816L526.512 45.12L536.736 66H537.648ZM556.062 42H551.166V42.816L552.606 45.12V62.88L551.166 65.184V66H557.502V65.184L556.062 62.88V42ZM551.166 36.144C551.166 37.584 552.414 38.832 553.854 38.832C555.246 38.832 556.494 37.584 556.494 36.144C556.494 34.752 555.246 33.504 553.854 33.504C552.414 33.504 551.166 34.752 551.166 36.144ZM584.738 30H579.842V30.816L581.282 33.12V43.824C580.658 43.68 572.93 41.232 571.106 41.232C564.962 41.232 561.362 45.84 561.362 54C561.362 61.104 566.882 66.768 573.938 66.768C576.53 66.768 579.266 65.856 581.282 64.32V66H586.178V65.184L584.738 62.88V30ZM564.962 54C564.962 46.32 567.554 42.432 572.402 42.432C573.554 42.432 580.658 44.496 581.282 44.688V63.168C579.458 64.944 577.01 65.952 574.082 65.952C568.322 65.952 564.962 60.672 564.962 54ZM607.763 48.288V52.032C607.139 51.888 600.995 49.68 598.067 49.68C594.275 49.68 590.003 51.888 590.003 57.36C590.003 64.08 595.379 66.768 600.611 66.768C603.923 66.768 606.419 65.52 607.763 64.272V66H612.659V65.184L611.219 62.88V49.44C611.219 43.776 607.475 41.232 601.379 41.232C598.259 41.232 594.562 42.72 593.267 43.776V48.048H594.083L596.579 43.2C597.683 42.672 599.651 42.048 601.379 42.048C605.507 42.048 607.763 44.928 607.763 48.288ZM593.603 57.888C593.603 53.472 595.763 50.88 599.363 50.88C601.859 50.88 607.139 52.704 607.763 52.896V63.024C606.611 64.32 604.403 65.808 601.379 65.808C595.859 65.808 593.603 61.824 593.603 57.888ZM624.13 56.976H625.09C625.09 46.944 636.61 44.832 636.61 37.152C636.61 32.544 632.53 29.232 625.714 29.232C621.058 29.232 617.554 30.96 615.778 32.544V38.88H616.594L618.802 32.64C619.666 31.536 622.162 30.048 625.714 30.048C629.89 30.048 632.962 32.256 632.962 36.528C632.962 44.592 624.13 45.888 624.13 56.976ZM622.21 63.504C622.21 64.848 623.362 66 624.706 66C626.002 66 627.154 64.848 627.154 63.504C627.154 62.208 626.002 61.056 624.706 61.056C623.362 61.056 622.21 62.208 622.21 63.504Z" fill="#0C413F"/>
<path d="M44.4 97.488L46.56 102.096V128.88L45.12 131.184V132H48.816V131.184L47.376 128.88V103.824L60.576 132H61.392L74.592 100.464V128.88L73.152 131.184V132H79.68V131.184L78.24 128.88V99.12L79.68 96.816V96H75.648L62.496 127.44L47.376 95.232L44.4 97.488ZM101.278 114.288V118.032C100.654 117.888 94.5101 115.68 91.5821 115.68C87.7901 115.68 83.5181 117.888 83.5181 123.36C83.5181 130.08 88.8941 132.768 94.1261 132.768C97.4381 132.768 99.9341 131.52 101.278 130.272V132H106.174V131.184L104.734 128.88V115.44C104.734 109.776 100.99 107.232 94.8941 107.232C91.7741 107.232 88.0781 108.72 86.7821 109.776V114.048H87.5981L90.0941 109.2C91.1981 108.672 93.1661 108.048 94.8941 108.048C99.0221 108.048 101.278 110.928 101.278 114.288ZM87.1181 123.888C87.1181 119.472 89.2781 116.88 92.8781 116.88C95.3741 116.88 100.654 118.704 101.278 118.896V129.024C100.126 130.32 97.9181 131.808 94.8941 131.808C89.3741 131.808 87.1181 127.824 87.1181 123.888ZM115.39 109.824V108H110.494V108.816L111.934 111.12V128.88L110.494 131.184V132H116.83V131.184L115.39 128.88V110.688C117.406 110.064 123.022 108.432 124.318 108.432C127.918 108.432 130.462 110.928 130.462 114.288V128.88L129.022 131.184V132H135.358V131.184L133.918 128.88V113.136C133.918 109.056 129.406 107.232 125.614 107.232C123.934 107.232 117.55 109.152 115.39 109.824ZM162.113 96H157.217V96.816L158.657 99.12V109.824C158.033 109.68 150.305 107.232 148.481 107.232C142.337 107.232 138.737 111.84 138.737 120C138.737 127.104 144.257 132.768 151.313 132.768C153.905 132.768 156.641 131.856 158.657 130.32V132H163.553V131.184L162.113 128.88V96ZM142.337 120C142.337 112.32 144.929 108.432 149.777 108.432C150.929 108.432 158.033 110.496 158.657 110.688V129.168C156.833 130.944 154.385 131.952 151.457 131.952C145.697 131.952 142.337 126.672 142.337 120ZM191.858 124.896L191.378 124.128C190.226 127.008 186.626 131.952 180.77 131.952C174.434 131.952 171.074 126.864 170.978 120.336H192.818V119.52C192.578 112.704 187.01 107.232 180.098 107.232C173.042 107.232 167.378 112.944 167.378 120C167.378 127.104 173.042 132.768 180.098 132.768C187.298 132.768 191.042 127.2 191.858 124.896ZM170.978 119.52C171.122 113.184 174.482 108.048 180.098 108.048C185.714 108.048 189.074 113.184 189.218 119.52H170.978ZM227.904 130.176V132H232.8V131.184L231.36 128.88V108H226.464V108.816L227.904 111.12V129.312C225.888 129.936 220.272 131.568 218.976 131.568C215.376 131.568 212.832 129.072 212.832 125.712V108H207.936V108.816L209.376 111.12V126.864C209.376 130.944 213.888 132.768 217.68 132.768C219.36 132.768 225.744 130.848 227.904 130.176ZM242.515 109.344V108H237.619V108.816L239.059 111.12V128.88L237.619 131.184V132H243.955V131.184L242.515 128.88V110.208C245.011 109.44 248.755 108.432 249.811 108.432C253.411 108.432 255.955 110.928 255.955 114.288V128.88L254.515 131.184V132H260.851V131.184L259.411 128.88V113.136C259.411 112.08 259.123 111.168 258.595 110.448C261.043 109.68 265.555 108.432 266.707 108.432C270.307 108.432 272.851 110.928 272.851 114.288V128.88L271.411 131.184V132H277.747V131.184L276.307 128.88V113.136C276.307 109.056 271.795 107.232 268.003 107.232C266.371 107.232 260.419 109.008 258.067 109.728C256.435 108.048 253.603 107.232 251.107 107.232C249.715 107.232 245.299 108.48 242.515 109.344ZM298.856 114.288V118.032C298.232 117.888 292.088 115.68 289.16 115.68C285.368 115.68 281.096 117.888 281.096 123.36C281.096 130.08 286.472 132.768 291.704 132.768C295.016 132.768 297.512 131.52 298.856 130.272V132H303.752V131.184L302.312 128.88V115.44C302.312 109.776 298.568 107.232 292.472 107.232C289.352 107.232 285.656 108.72 284.36 109.776V114.048H285.176L287.672 109.2C288.776 108.672 290.744 108.048 292.472 108.048C296.6 108.048 298.856 110.928 298.856 114.288ZM284.696 123.888C284.696 119.472 286.856 116.88 290.456 116.88C292.952 116.88 298.232 118.704 298.856 118.896V129.024C297.704 130.32 295.496 131.808 292.472 131.808C286.952 131.808 284.696 127.824 284.696 123.888ZM324.968 109.344V108H320.072V108.816L321.512 111.12V128.88L320.072 131.184V132H326.408V131.184L324.968 128.88V110.208C327.464 109.44 331.208 108.432 332.264 108.432C335.864 108.432 338.408 110.928 338.408 114.288V128.88L336.968 131.184V132H343.304V131.184L341.864 128.88V113.136C341.864 112.08 341.576 111.168 341.048 110.448C343.496 109.68 348.008 108.432 349.16 108.432C352.76 108.432 355.304 110.928 355.304 114.288V128.88L353.864 131.184V132H360.2V131.184L358.76 128.88V113.136C358.76 109.056 354.248 107.232 350.456 107.232C348.824 107.232 342.872 109.008 340.52 109.728C338.888 108.048 336.056 107.232 333.56 107.232C332.168 107.232 327.752 108.48 324.968 109.344ZM388.029 124.896L387.549 124.128C386.397 127.008 382.797 131.952 376.941 131.952C370.605 131.952 367.245 126.864 367.149 120.336H388.989V119.52C388.749 112.704 383.181 107.232 376.269 107.232C369.213 107.232 363.549 112.944 363.549 120C363.549 127.104 369.213 132.768 376.269 132.768C383.469 132.768 387.213 127.2 388.029 124.896ZM367.149 119.52C367.293 113.184 370.653 108.048 376.269 108.048C381.885 108.048 385.245 113.184 385.389 119.52H367.149ZM397.484 109.824V108H392.588V108.816L394.028 111.12V128.88L392.588 131.184V132H398.924V131.184L397.484 128.88V110.688C399.5 110.064 405.116 108.432 406.412 108.432C410.012 108.432 412.556 110.928 412.556 114.288V128.88L411.116 131.184V132H417.452V131.184L416.012 128.88V113.136C416.012 109.056 411.5 107.232 407.708 107.232C406.028 107.232 399.644 109.152 397.484 109.824ZM440.415 110.352C439.119 109.296 435.903 107.232 431.151 107.232C425.535 107.232 421.167 110.208 421.167 114.432C421.167 123.792 438.735 119.328 438.735 127.008C438.735 130.416 434.127 131.952 431.103 131.952C428.223 131.952 425.007 130.992 423.903 130.128L421.407 125.28H420.591V129.552C421.887 130.608 426.351 132.768 431.103 132.768C435.855 132.768 442.191 130.992 442.191 125.808C442.191 116.352 424.383 120.288 424.383 113.088C424.383 109.968 428.175 108.048 431.151 108.048C434.511 108.048 436.479 109.248 437.103 109.776L439.599 114.624H440.415V110.352ZM462.591 114.288V118.032C461.967 117.888 455.823 115.68 452.895 115.68C449.103 115.68 444.831 117.888 444.831 123.36C444.831 130.08 450.207 132.768 455.439 132.768C458.751 132.768 461.247 131.52 462.591 130.272V132H467.487V131.184L466.047 128.88V115.44C466.047 109.776 462.303 107.232 456.207 107.232C453.087 107.232 449.391 108.72 448.095 109.776V114.048H448.911L451.407 109.2C452.511 108.672 454.479 108.048 456.207 108.048C460.335 108.048 462.591 110.928 462.591 114.288ZM448.431 123.888C448.431 119.472 450.591 116.88 454.191 116.88C456.687 116.88 461.967 118.704 462.591 118.896V129.024C461.439 130.32 459.231 131.808 456.207 131.808C450.687 131.808 448.431 127.824 448.431 123.888ZM483.182 127.248C489.374 127.248 494.366 122.784 494.366 117.264C494.366 113.808 492.398 110.736 489.374 108.96C490.67 107.04 491.822 107.328 494.126 108.384L495.662 104.928C492.686 104.928 490.91 105.168 488.75 108.576C487.118 107.76 485.198 107.28 483.182 107.28C476.942 107.28 471.998 111.744 471.998 117.264C471.998 120.336 473.534 123.12 475.982 124.944C474.878 125.376 473.678 126.336 473.678 127.44C473.678 128.928 474.878 129.792 476.702 130.416C474.446 130.848 470.366 132.432 470.366 135.84C470.366 139.296 473.966 142.368 482.558 142.368C489.038 142.368 495.662 139.92 495.662 136.272C495.662 127.488 474.494 131.856 474.494 127.44C474.494 126.432 475.694 125.664 476.654 125.424C478.478 126.576 480.734 127.248 483.182 127.248ZM473.966 135.504C473.966 132.432 476.03 131.184 477.614 130.704C482.99 132.192 492.062 132 492.062 136.272C492.062 138.864 489.038 141.552 482.558 141.552C475.886 141.552 473.966 138 473.966 135.504ZM475.598 117.264C475.598 112.272 478.526 108.048 483.182 108.048C487.886 108.048 490.766 112.272 490.766 117.264C490.766 122.304 487.886 126.432 483.182 126.432C478.526 126.432 475.598 122.304 475.598 117.264ZM522.561 124.896L522.081 124.128C520.929 127.008 517.329 131.952 511.473 131.952C505.137 131.952 501.777 126.864 501.681 120.336H523.521V119.52C523.281 112.704 517.713 107.232 510.801 107.232C503.745 107.232 498.081 112.944 498.081 120C498.081 127.104 503.745 132.768 510.801 132.768C518.001 132.768 521.745 127.2 522.561 124.896ZM501.681 119.52C501.825 113.184 505.185 108.048 510.801 108.048C516.417 108.048 519.777 113.184 519.921 119.52H501.681ZM532.015 109.344V108H527.119V108.816L528.559 111.12V128.88L527.119 131.184V132H533.455V131.184L532.015 128.88V110.208C534.511 109.44 538.255 108.432 539.311 108.432C542.911 108.432 545.455 110.928 545.455 114.288V128.88L544.015 131.184V132H550.351V131.184L548.911 128.88V113.136C548.911 112.08 548.623 111.168 548.095 110.448C550.543 109.68 555.055 108.432 556.207 108.432C559.807 108.432 562.351 110.928 562.351 114.288V128.88L560.911 131.184V132H567.247V131.184L565.807 128.88V113.136C565.807 109.056 561.295 107.232 557.503 107.232C555.871 107.232 549.919 109.008 547.567 109.728C545.935 108.048 543.103 107.232 540.607 107.232C539.215 107.232 534.799 108.48 532.015 109.344ZM574.052 132.768C575.348 132.768 576.5 131.616 576.5 130.272C576.5 128.976 575.348 127.824 574.052 127.824C572.708 127.824 571.556 128.976 571.556 130.272C571.556 131.616 572.708 132.768 574.052 132.768Z" fill="#101010"/>
</svg>
