<svg width="183" height="44" viewBox="0 0 183 44" fill="none" xmlns="http://www.w3.org/2000/svg">
<path d="M2 42L0.500002 42L0.500002 43.5L2 43.5L2 42ZM0.500004 -2.16371e-06L0.500004 3.5L3.5 3.5L3.5 -2.03258e-06L0.500004 -2.16371e-06ZM0.500003 10.5L0.500003 17.5L3.5 17.5L3.5 10.5L0.500003 10.5ZM0.500003 24.5L0.500002 31.5L3.5 31.5L3.5 24.5L0.500003 24.5ZM0.500002 38.5L0.500002 42L3.5 42L3.5 38.5L0.500002 38.5ZM2 43.5L6 43.5L6 40.5L2 40.5L2 43.5ZM14 43.5L22 43.5L22 40.5L14 40.5L14 43.5ZM30 43.5L38 43.5L38 40.5L30 40.5L30 43.5ZM46 43.5L50 43.5L50 40.5L46 40.5L46 43.5Z" fill="#D3B8B1"/>
<path d="M33.072 8H15.6V8.544L16.56 10.08V29.92L15.6 31.456V32H19.952V31.456L18.992 29.92V20.384H25.264L26.832 23.52H27.376V16.704H26.832L25.264 19.84H18.992V8.544H30.96L32.528 13.536H33.072V8ZM40.44 32.512C45.144 32.512 48.92 28.736 48.92 24C48.92 19.296 45.144 15.488 40.44 15.488C35.736 15.488 31.96 19.296 31.96 24C31.96 28.736 35.736 32.512 40.44 32.512ZM34.36 24C34.36 19.616 36.6 16.032 40.44 16.032C44.28 16.032 46.52 19.616 46.52 24C46.52 28.448 44.28 31.968 40.44 31.968C36.6 31.968 34.36 28.448 34.36 24ZM63.635 17.28C62.355 15.968 60.275 15.488 59.059 15.488C56.915 15.488 55.475 16.544 54.739 17.248V16H51.475V16.544L52.435 18.08V29.92L51.475 31.456V32H55.699V31.456L54.739 29.92V17.888C55.443 17.184 56.819 16.032 58.579 16.032C60.019 16.032 60.627 16.32 61.427 16.896L63.091 20.128H63.635V17.28ZM68.8328 16.896V16H65.5688V16.544L66.5288 18.08V29.92L65.5688 31.456V32H69.7928V31.456L68.8328 29.92V17.472C70.4968 16.96 72.9928 16.288 73.6968 16.288C76.0968 16.288 77.7928 17.952 77.7928 20.192V29.92L76.8328 31.456V32H81.0568V31.456L80.0968 29.92V19.424C80.0968 18.72 79.9048 18.112 79.5528 17.632C81.1848 17.12 84.1928 16.288 84.9608 16.288C87.3608 16.288 89.0568 17.952 89.0568 20.192V29.92L88.0968 31.456V32H92.3208V31.456L91.3608 29.92V19.424C91.3608 16.704 88.3528 15.488 85.8248 15.488C84.7368 15.488 80.7688 16.672 79.2008 17.152C78.1128 16.032 76.2248 15.488 74.5608 15.488C73.6328 15.488 70.6888 16.32 68.8328 16.896ZM106.394 20.192V22.688C105.978 22.592 101.882 21.12 99.9298 21.12C97.4018 21.12 94.5538 22.592 94.5538 26.24C94.5538 30.72 98.1378 32.512 101.626 32.512C103.834 32.512 105.498 31.68 106.394 30.848V32H109.658V31.456L108.698 29.92V20.96C108.698 17.184 106.202 15.488 102.138 15.488C100.058 15.488 97.5938 16.48 96.7298 17.184V20.032H97.2738L98.9378 16.8C99.6738 16.448 100.986 16.032 102.138 16.032C104.89 16.032 106.394 17.952 106.394 20.192ZM96.9538 26.592C96.9538 23.648 98.3938 21.92 100.794 21.92C102.458 21.92 105.978 23.136 106.394 23.264V30.016C105.626 30.88 104.154 31.872 102.138 31.872C98.4578 31.872 96.9538 29.216 96.9538 26.592ZM120.826 16.032C123.066 16.032 124.922 16.928 125.306 17.664L126.97 20.896H127.514V18.048C126.65 17.056 124.186 15.488 120.826 15.488C115.674 15.488 111.898 19.296 111.898 24C111.898 28.384 115.13 31.936 119.322 32.448L118.874 34.368C119.354 34.208 119.61 34.08 120.345 34.08C121.498 34.08 121.914 35.104 121.722 35.968C121.53 36.832 120.858 37.44 119.738 37.44C118.938 37.44 118.458 37.088 118.298 36.96L118.138 37.216C118.234 37.376 119.098 37.984 120.218 37.984C121.69 37.984 123.258 37.12 123.258 35.552C123.258 33.856 121.562 33.408 120.698 33.408C120.122 33.408 119.802 33.472 119.61 33.536L119.866 32.512H120.378C125.818 32.512 127.898 28.704 128.218 27.264L127.898 26.752C127.385 28.64 125.37 31.968 120.826 31.968C116.538 31.968 114.298 28.448 114.298 24C114.298 19.616 116.538 16.032 120.826 16.032ZM138.471 32.512C143.175 32.512 146.951 28.736 146.951 24C146.951 19.296 143.175 15.488 138.471 15.488C133.767 15.488 129.991 19.296 129.991 24C129.991 28.736 133.767 32.512 138.471 32.512ZM132.391 24C132.391 19.616 134.631 16.032 138.471 16.032C142.311 16.032 144.551 19.616 144.551 24C144.551 28.448 142.311 31.968 138.471 31.968C134.631 31.968 132.391 28.448 132.391 24ZM135.079 12.96L135.303 13.184C135.591 12.608 135.975 12.288 136.743 12.288C138.023 12.288 138.535 13.632 140.071 13.632C141.543 13.632 142.023 12.192 142.087 11.68L141.863 11.456C141.671 11.936 141.287 12.16 140.743 12.16C139.367 12.16 138.791 10.816 137.351 10.816C135.687 10.816 135.175 12.288 135.079 12.96ZM165.186 27.264L164.866 26.752C164.098 28.672 161.698 31.968 157.794 31.968C153.57 31.968 151.33 28.576 151.266 24.224H165.826V23.68C165.666 19.136 161.954 15.488 157.346 15.488C152.642 15.488 148.866 19.296 148.866 24C148.866 28.736 152.642 32.512 157.346 32.512C162.146 32.512 164.642 28.8 165.186 27.264ZM151.266 23.68C151.362 19.456 153.602 16.032 157.346 16.032C161.09 16.032 163.33 19.456 163.426 23.68H151.266ZM180.641 17.568C179.777 16.864 177.633 15.488 174.465 15.488C170.721 15.488 167.809 17.472 167.809 20.288C167.809 26.528 179.521 23.552 179.521 28.672C179.521 30.944 176.449 31.968 174.433 31.968C172.513 31.968 170.369 31.328 169.633 30.752L167.969 27.52H167.425V30.368C168.289 31.072 171.265 32.512 174.433 32.512C177.601 32.512 181.825 31.328 181.825 27.872C181.825 21.568 169.953 24.192 169.953 19.392C169.953 17.312 172.481 16.032 174.465 16.032C176.705 16.032 178.017 16.832 178.433 17.184L180.097 20.416H180.641V17.568Z" fill="#0C413F"/>
</svg>
